<svg xmlns="http://www.w3.org/2000/svg" width="323" height="314" fill="none" viewBox="0 0 323 314">
  <path fill="#300" d="M57.363 0h207.992c31.534 0 57.03 25.496 57.03 57.03v199.94c0 31.534-25.496 57.03-57.03 57.03H57.363C25.83 314 .333 288.504.333 256.97V57.03C.333 25.496 25.83 0 57.363 0Z"/>
  <path fill="#FF9A00" d="M155.992 187.863h-49.918l-10.198 31.534c-.269 1.208-1.342 2.013-2.55 1.879H68.099c-1.477 0-1.88-.805-1.477-2.415l43.209-124.393c.403-1.342.805-2.818 1.342-4.428a46.85 46.85 0 0 0 .805-8.722c-.134-.671.403-1.342 1.074-1.476h34.754c1.074 0 1.61.403 1.745 1.073l48.978 138.214c.403 1.476 0 2.147-1.342 2.147h-28.045c-.939.134-1.879-.537-2.147-1.476l-11.003-31.937Zm-42.135-27.24h34.083c-.805-2.818-1.878-6.173-3.086-9.661-1.208-3.624-2.415-7.515-3.623-11.541-1.342-4.159-2.55-8.185-3.891-12.345-1.342-4.16-2.55-8.051-3.624-11.943-1.073-3.757-2.012-7.246-2.952-10.466h-.268c-1.208 5.77-2.684 11.54-4.562 17.31-2.013 6.441-4.026 13.15-6.173 19.86a264.076 264.076 0 0 1-5.904 18.786Zm114.596-57.298c-4.428.134-8.722-1.61-11.942-4.697-3.087-3.355-4.697-7.783-4.563-12.345-.134-4.563 1.61-8.856 4.831-11.943 3.22-3.086 7.514-4.696 11.943-4.696 5.233 0 9.259 1.61 12.211 4.696a16.942 16.942 0 0 1 4.428 11.943c.134 4.562-1.476 8.99-4.697 12.345-3.086 3.221-7.648 4.965-12.211 4.697ZM213.424 219.8V116.475c0-1.342.537-1.878 1.745-1.878h26.569c1.208 0 1.744.671 1.744 1.878V219.8c0 1.476-.536 2.147-1.744 2.147h-26.301c-1.342 0-2.013-.805-2.013-2.147Z"/>
</svg>
