<svg xmlns="http://www.w3.org/2000/svg" xmlns:xlink="http://www.w3.org/1999/xlink" width="496" zoomAndPan="magnify" viewBox="0 0 372 371.999986" height="496" preserveAspectRatio="xMidYMid meet" version="1.0"><defs><g/></defs><g fill="#000000" fill-opacity="1"><g transform="translate(81.586298, 230.139896)"><g><path d="M -1.328125 -4.25 C -1.066406 -3.539062 -1.082031 -2.851562 -1.375 -2.1875 C -1.675781 -1.53125 -2.179688 -1.066406 -2.890625 -0.796875 C -3.597656 -0.535156 -4.285156 -0.550781 -4.953125 -0.84375 C -5.617188 -1.144531 -6.082031 -1.648438 -6.34375 -2.359375 C -6.601562 -3.046875 -6.582031 -3.722656 -6.28125 -4.390625 C -5.976562 -5.054688 -5.472656 -5.519531 -4.765625 -5.78125 C -4.054688 -6.050781 -3.367188 -6.035156 -2.703125 -5.734375 C -2.046875 -5.429688 -1.585938 -4.9375 -1.328125 -4.25 Z M -1.328125 -4.25 "/></g></g></g><g fill="#000000" fill-opacity="1"><g transform="translate(78.712551, 222.609216)"><g/></g></g><g fill="#000000" fill-opacity="1"><g transform="translate(75.768198, 215.042248)"><g><path d="M -26.828125 -7.375 C -27.210938 -10.0625 -27.035156 -12.488281 -26.296875 -14.65625 C -25.566406 -16.820312 -24.3125 -18.59375 -22.53125 -19.96875 C -20.757812 -21.351562 -18.59375 -22.226562 -16.03125 -22.59375 C -13.457031 -22.96875 -11.144531 -22.734375 -9.09375 -21.890625 C -7.050781 -21.054688 -5.378906 -19.703125 -4.078125 -17.828125 C -2.785156 -15.953125 -1.945312 -13.671875 -1.5625 -10.984375 L -0.390625 -2.71875 L -25.65625 0.890625 Z M -4.953125 -10.5 C -5.378906 -13.445312 -6.503906 -15.59375 -8.328125 -16.9375 C -10.148438 -18.289062 -12.515625 -18.757812 -15.421875 -18.34375 C -18.347656 -17.925781 -20.523438 -16.8125 -21.953125 -15 C -23.378906 -13.1875 -23.878906 -10.804688 -23.453125 -7.859375 L -22.875 -3.75 L -4.375 -6.390625 Z M -4.953125 -10.5 "/></g></g></g><g fill="#000000" fill-opacity="1"><g transform="translate(72.343613, 191.292936)"><g><path d="M -9.4375 -21.84375 C -8.675781 -21.800781 -7.992188 -21.71875 -7.390625 -21.59375 L -8.234375 -6.140625 C -6.609375 -6.171875 -5.273438 -6.695312 -4.234375 -7.71875 C -3.203125 -8.75 -2.644531 -10.046875 -2.5625 -11.609375 C -2.4375 -13.859375 -3.289062 -15.5 -5.125 -16.53125 L -4.875 -21.046875 C -3.0625 -20.328125 -1.601562 -19.132812 -0.5 -17.46875 C 0.59375 -15.8125 1.078125 -13.796875 0.953125 -11.421875 C 0.847656 -9.492188 0.320312 -7.789062 -0.625 -6.3125 C -1.582031 -4.832031 -2.867188 -3.695312 -4.484375 -2.90625 C -6.109375 -2.125 -7.960938 -1.789062 -10.046875 -1.90625 C -12.117188 -2.019531 -13.921875 -2.539062 -15.453125 -3.46875 C -16.984375 -4.40625 -18.132812 -5.65625 -18.90625 -7.21875 C -19.6875 -8.789062 -20.019531 -10.566406 -19.90625 -12.546875 C -19.800781 -14.460938 -19.289062 -16.140625 -18.375 -17.578125 C -17.46875 -19.023438 -16.238281 -20.125 -14.6875 -20.875 C -13.144531 -21.625 -11.394531 -21.945312 -9.4375 -21.84375 Z M -11 -17.546875 C -12.539062 -17.609375 -13.800781 -17.125 -14.78125 -16.09375 C -15.769531 -15.070312 -16.304688 -13.765625 -16.390625 -12.171875 C -16.460938 -10.734375 -16.070312 -9.472656 -15.21875 -8.390625 C -14.363281 -7.316406 -13.160156 -6.644531 -11.609375 -6.375 Z M -24.8125 -16.5 L -21.265625 -8.171875 L -24.34375 -8.34375 L -28.359375 -16.703125 Z M -24.8125 -16.5 "/></g></g></g><g fill="#000000" fill-opacity="1"><g transform="translate(73.378775, 170.489055)"><g><path d="M -1.234375 -11.15625 L -15.96875 -20.484375 L -14.953125 -24.828125 L 2.984375 -12.6875 L 1.84375 -7.828125 L -19.625 -4.984375 L -18.59375 -9.34375 Z M -1.234375 -11.15625 "/></g></g></g><g fill="#000000" fill-opacity="1"><g transform="translate(77.580335, 151.615674)"><g><path d="M -1.296875 -23.75 C -0.597656 -23.445312 0.00390625 -23.132812 0.515625 -22.8125 L -5.609375 -8.609375 C -4.066406 -8.078125 -2.628906 -8.113281 -1.296875 -8.71875 C 0.0234375 -9.320312 0.992188 -10.34375 1.609375 -11.78125 C 2.503906 -13.84375 2.273438 -15.679688 0.921875 -17.296875 L 2.703125 -21.4375 C 4.160156 -20.132812 5.113281 -18.507812 5.5625 -16.5625 C 6.019531 -14.625 5.773438 -12.566406 4.828125 -10.390625 C 4.066406 -8.617188 2.984375 -7.203125 1.578125 -6.140625 C 0.179688 -5.078125 -1.410156 -4.457031 -3.203125 -4.28125 C -5.003906 -4.113281 -6.863281 -4.441406 -8.78125 -5.265625 C -10.6875 -6.085938 -12.195312 -7.195312 -13.3125 -8.59375 C -14.425781 -10 -15.070312 -11.570312 -15.25 -13.3125 C -15.425781 -15.0625 -15.125 -16.84375 -14.34375 -18.65625 C -13.582031 -20.414062 -12.519531 -21.816406 -11.15625 -22.859375 C -9.800781 -23.898438 -8.269531 -24.503906 -6.5625 -24.671875 C -4.851562 -24.835938 -3.097656 -24.53125 -1.296875 -23.75 Z M -4.25 -20.265625 C -5.675781 -20.859375 -7.03125 -20.84375 -8.3125 -20.21875 C -9.59375 -19.59375 -10.546875 -18.550781 -11.171875 -17.09375 C -11.742188 -15.769531 -11.8125 -14.453125 -11.375 -13.140625 C -10.9375 -11.828125 -10.039062 -10.78125 -8.6875 -10 Z M -4.25 -20.265625 "/></g></g></g><g fill="#000000" fill-opacity="1"><g transform="translate(86.307634, 132.222724)"><g><path d="M -19.796875 -19.875 L 3.546875 -5.953125 L 1.40625 -2.359375 L -21.9375 -16.28125 Z M -19.796875 -19.875 "/></g></g></g><g fill="#000000" fill-opacity="1"><g transform="translate(90.101205, 124.776763)"><g><path d="M 7.421875 -8.828125 C 6.234375 -7.335938 4.820312 -6.257812 3.1875 -5.59375 C 1.550781 -4.925781 -0.160156 -4.734375 -1.953125 -5.015625 C -3.742188 -5.304688 -5.453125 -6.101562 -7.078125 -7.40625 C -8.679688 -8.675781 -9.820312 -10.160156 -10.5 -11.859375 C -11.1875 -13.554688 -11.378906 -15.285156 -11.078125 -17.046875 C -10.773438 -18.804688 -10.023438 -20.441406 -8.828125 -21.953125 C -7.628906 -23.460938 -6.203125 -24.566406 -4.546875 -25.265625 C -2.898438 -25.960938 -1.171875 -26.171875 0.640625 -25.890625 C 2.453125 -25.609375 4.160156 -24.832031 5.765625 -23.5625 C 7.378906 -22.269531 8.519531 -20.765625 9.1875 -19.046875 C 9.851562 -17.335938 10.023438 -15.585938 9.703125 -13.796875 C 9.390625 -12.003906 8.628906 -10.347656 7.421875 -8.828125 Z M 4.578125 -11.09375 C 5.242188 -11.9375 5.671875 -12.882812 5.859375 -13.9375 C 6.046875 -14.988281 5.914062 -16.066406 5.46875 -17.171875 C 5.03125 -18.273438 4.238281 -19.285156 3.09375 -20.203125 C 1.9375 -21.109375 0.789062 -21.65625 -0.34375 -21.84375 C -1.488281 -22.039062 -2.550781 -21.929688 -3.53125 -21.515625 C -4.519531 -21.109375 -5.347656 -20.484375 -6.015625 -19.640625 C -6.679688 -18.804688 -7.097656 -17.867188 -7.265625 -16.828125 C -7.441406 -15.785156 -7.300781 -14.734375 -6.84375 -13.671875 C -6.382812 -12.617188 -5.578125 -11.640625 -4.421875 -10.734375 C -2.710938 -9.367188 -1.050781 -8.753906 0.5625 -8.890625 C 2.1875 -9.035156 3.523438 -9.769531 4.578125 -11.09375 Z M 4.578125 -11.09375 "/></g></g></g><g fill="#000000" fill-opacity="1"><g transform="translate(103.224692, 107.830278)"><g><path d="M -5.90625 -17.65625 C -5.96875 -18.8125 -5.738281 -20.023438 -5.21875 -21.296875 C -4.695312 -22.578125 -3.847656 -23.71875 -2.671875 -24.71875 C -1.328125 -25.863281 0.175781 -26.578125 1.84375 -26.859375 C 3.519531 -27.140625 5.1875 -26.953125 6.84375 -26.296875 C 8.5 -25.648438 9.984375 -24.550781 11.296875 -23 C 12.609375 -21.457031 13.46875 -19.800781 13.875 -18.03125 C 14.28125 -16.269531 14.21875 -14.578125 13.6875 -12.953125 C 13.15625 -11.335938 12.21875 -9.957031 10.875 -8.8125 C 9.695312 -7.8125 8.445312 -7.160156 7.125 -6.859375 C 5.8125 -6.554688 4.5625 -6.515625 3.375 -6.734375 L 11.515625 2.828125 L 8.328125 5.546875 L -11.015625 -17.1875 L -7.828125 -19.90625 Z M 8.046875 -20.234375 C 7.140625 -21.296875 6.140625 -22.023438 5.046875 -22.421875 C 3.953125 -22.828125 2.875 -22.925781 1.8125 -22.71875 C 0.75 -22.507812 -0.1875 -22.054688 -1 -21.359375 C -1.800781 -20.679688 -2.382812 -19.832031 -2.75 -18.8125 C -3.125 -17.789062 -3.195312 -16.703125 -2.96875 -15.546875 C -2.75 -14.390625 -2.191406 -13.28125 -1.296875 -12.21875 C -0.390625 -11.15625 0.617188 -10.414062 1.734375 -10 C 2.859375 -9.582031 3.953125 -9.472656 5.015625 -9.671875 C 6.085938 -9.867188 7.023438 -10.304688 7.828125 -10.984375 C 8.640625 -11.679688 9.226562 -12.539062 9.59375 -13.5625 C 9.957031 -14.59375 10.015625 -15.695312 9.765625 -16.875 C 9.523438 -18.050781 8.953125 -19.171875 8.046875 -20.234375 Z M 8.046875 -20.234375 "/></g></g></g><g fill="#000000" fill-opacity="1"><g transform="translate(120.492458, 92.868084)"><g><path d="M -2.265625 -18.46875 C -2.097656 -19.613281 -1.628906 -20.757812 -0.859375 -21.90625 C -0.0976562 -23.0625 0.957031 -24.007812 2.3125 -24.75 C 3.851562 -25.613281 5.472656 -26.015625 7.171875 -25.953125 C 8.867188 -25.890625 10.457031 -25.375 11.9375 -24.40625 C 13.425781 -23.4375 14.660156 -22.066406 15.640625 -20.296875 C 16.628906 -18.515625 17.144531 -16.71875 17.1875 -14.90625 C 17.238281 -13.09375 16.835938 -11.445312 15.984375 -9.96875 C 15.140625 -8.5 13.945312 -7.332031 12.40625 -6.46875 C 11.050781 -5.726562 9.695312 -5.34375 8.34375 -5.3125 C 7 -5.28125 5.769531 -5.488281 4.65625 -5.9375 L 10.734375 5.0625 L 7.0625 7.09375 L -7.375 -19.046875 L -3.703125 -21.078125 Z M 11.90625 -18.234375 C 11.238281 -19.453125 10.40625 -20.367188 9.40625 -20.984375 C 8.414062 -21.597656 7.378906 -21.90625 6.296875 -21.90625 C 5.222656 -21.90625 4.21875 -21.644531 3.28125 -21.125 C 2.351562 -20.625 1.601562 -19.910156 1.03125 -18.984375 C 0.46875 -18.054688 0.179688 -17.003906 0.171875 -15.828125 C 0.171875 -14.660156 0.503906 -13.460938 1.171875 -12.234375 C 1.847656 -11.015625 2.691406 -10.085938 3.703125 -9.453125 C 4.710938 -8.816406 5.757812 -8.492188 6.84375 -8.484375 C 7.925781 -8.472656 8.929688 -8.71875 9.859375 -9.21875 C 10.796875 -9.738281 11.539062 -10.46875 12.09375 -11.40625 C 12.65625 -12.34375 12.929688 -13.40625 12.921875 -14.59375 C 12.921875 -15.789062 12.582031 -17.003906 11.90625 -18.234375 Z M 11.90625 -18.234375 "/></g></g></g><g fill="#000000" fill-opacity="1"><g transform="translate(140.51766, 81.724665)"><g><path d="M 17 -16.640625 C 17.238281 -15.921875 17.398438 -15.257812 17.484375 -14.65625 L 2.765625 -9.890625 C 3.390625 -8.390625 4.363281 -7.335938 5.6875 -6.734375 C 7.019531 -6.128906 8.425781 -6.066406 9.90625 -6.546875 C 12.050781 -7.242188 13.285156 -8.632812 13.609375 -10.71875 L 17.90625 -12.109375 C 17.875 -10.148438 17.273438 -8.359375 16.109375 -6.734375 C 14.953125 -5.117188 13.242188 -3.941406 10.984375 -3.203125 C 9.148438 -2.617188 7.375 -2.503906 5.65625 -2.859375 C 3.9375 -3.210938 2.421875 -4.003906 1.109375 -5.234375 C -0.203125 -6.472656 -1.179688 -8.085938 -1.828125 -10.078125 C -2.460938 -12.046875 -2.617188 -13.910156 -2.296875 -15.671875 C -1.984375 -17.441406 -1.226562 -18.96875 -0.03125 -20.25 C 1.15625 -21.53125 2.6875 -22.472656 4.5625 -23.078125 C 6.394531 -23.671875 8.144531 -23.800781 9.8125 -23.46875 C 11.488281 -23.132812 12.953125 -22.378906 14.203125 -21.203125 C 15.460938 -20.023438 16.394531 -18.503906 17 -16.640625 Z M 12.421875 -16.5625 C 11.929688 -18.03125 11.03125 -19.035156 9.71875 -19.578125 C 8.414062 -20.128906 7.003906 -20.160156 5.484375 -19.671875 C 4.117188 -19.222656 3.082031 -18.40625 2.375 -17.21875 C 1.675781 -16.03125 1.476562 -14.664062 1.78125 -13.125 Z M 12.421875 -16.5625 "/></g></g></g><g fill="#000000" fill-opacity="1"><g transform="translate(160.182445, 75.110044)"><g><path d="M 18.375 -22.71875 L 20.90625 -2.640625 L 16.765625 -2.109375 L 16.46875 -4.484375 C 15.914062 -3.566406 15.140625 -2.804688 14.140625 -2.203125 C 13.140625 -1.597656 12.046875 -1.21875 10.859375 -1.0625 C 9.273438 -0.863281 7.816406 -1.015625 6.484375 -1.515625 C 5.148438 -2.015625 4.046875 -2.863281 3.171875 -4.0625 C 2.296875 -5.257812 1.742188 -6.769531 1.515625 -8.59375 L 0.03125 -20.40625 L 4.140625 -20.921875 L 5.546875 -9.71875 C 5.773438 -7.9375 6.394531 -6.617188 7.40625 -5.765625 C 8.425781 -4.921875 9.710938 -4.59375 11.265625 -4.78125 C 12.828125 -4.976562 14.003906 -5.613281 14.796875 -6.6875 C 15.585938 -7.769531 15.867188 -9.203125 15.640625 -10.984375 L 14.234375 -22.1875 Z M 18.375 -22.71875 "/></g></g></g><g fill="#000000" fill-opacity="1"><g transform="translate(182.020135, 72.382668)"><g><path d="M 10.0625 0.828125 C 8.476562 0.753906 7.066406 0.398438 5.828125 -0.234375 C 4.597656 -0.878906 3.640625 -1.71875 2.953125 -2.75 C 2.273438 -3.78125 1.945312 -4.90625 1.96875 -6.125 L 6.296875 -5.90625 C 6.328125 -5.050781 6.695312 -4.316406 7.40625 -3.703125 C 8.113281 -3.085938 9.035156 -2.75 10.171875 -2.6875 C 11.335938 -2.632812 12.253906 -2.816406 12.921875 -3.234375 C 13.597656 -3.648438 13.957031 -4.21875 14 -4.9375 C 14.03125 -5.675781 13.691406 -6.25 12.984375 -6.65625 C 12.285156 -7.0625 11.164062 -7.523438 9.625 -8.046875 C 8.125 -8.535156 6.910156 -9 5.984375 -9.4375 C 5.054688 -9.875 4.257812 -10.515625 3.59375 -11.359375 C 2.9375 -12.203125 2.644531 -13.285156 2.71875 -14.609375 C 2.769531 -15.691406 3.132812 -16.660156 3.8125 -17.515625 C 4.488281 -18.367188 5.429688 -19.019531 6.640625 -19.46875 C 7.847656 -19.925781 9.222656 -20.117188 10.765625 -20.046875 C 13.066406 -19.929688 14.890625 -19.257812 16.234375 -18.03125 C 17.585938 -16.8125 18.269531 -15.191406 18.28125 -13.171875 L 14.09375 -13.375 C 14.0625 -14.289062 13.726562 -15.03125 13.09375 -15.59375 C 12.457031 -16.164062 11.578125 -16.476562 10.453125 -16.53125 C 9.347656 -16.59375 8.492188 -16.429688 7.890625 -16.046875 C 7.285156 -15.660156 6.96875 -15.125 6.9375 -14.4375 C 6.90625 -13.894531 7.070312 -13.429688 7.4375 -13.046875 C 7.8125 -12.671875 8.273438 -12.363281 8.828125 -12.125 C 9.378906 -11.882812 10.195312 -11.578125 11.28125 -11.203125 C 12.726562 -10.734375 13.914062 -10.273438 14.84375 -9.828125 C 15.769531 -9.378906 16.554688 -8.742188 17.203125 -7.921875 C 17.847656 -7.097656 18.148438 -6.046875 18.109375 -4.765625 C 18.046875 -3.609375 17.675781 -2.59375 17 -1.71875 C 16.320312 -0.851562 15.390625 -0.191406 14.203125 0.265625 C 13.015625 0.722656 11.632812 0.910156 10.0625 0.828125 Z M 10.0625 0.828125 "/></g></g></g><g fill="#000000" fill-opacity="1"><g transform="translate(199.863259, 72.99668)"><g><path d="M 23.09375 -5.71875 C 22.925781 -4.96875 22.734375 -4.3125 22.515625 -3.75 L 7.421875 -7.125 C 7.191406 -5.507812 7.492188 -4.101562 8.328125 -2.90625 C 9.171875 -1.71875 10.351562 -0.953125 11.875 -0.609375 C 14.070312 -0.117188 15.832031 -0.691406 17.15625 -2.328125 L 21.5625 -1.34375 C 20.550781 0.332031 19.132812 1.570312 17.3125 2.375 C 15.488281 3.1875 13.414062 3.332031 11.09375 2.8125 C 9.21875 2.394531 7.628906 1.59375 6.328125 0.40625 C 5.023438 -0.769531 4.117188 -2.222656 3.609375 -3.953125 C 3.109375 -5.679688 3.085938 -7.5625 3.546875 -9.59375 C 3.992188 -11.625 4.800781 -13.316406 5.96875 -14.671875 C 7.132812 -16.035156 8.554688 -16.96875 10.234375 -17.46875 C 11.921875 -17.96875 13.726562 -18 15.65625 -17.5625 C 17.53125 -17.144531 19.101562 -16.367188 20.375 -15.234375 C 21.644531 -14.097656 22.519531 -12.703125 23 -11.046875 C 23.488281 -9.398438 23.519531 -7.625 23.09375 -5.71875 Z M 19.125 -7.96875 C 19.4375 -9.46875 19.164062 -10.785156 18.3125 -11.921875 C 17.46875 -13.066406 16.269531 -13.816406 14.71875 -14.171875 C 13.3125 -14.484375 12.003906 -14.300781 10.796875 -13.625 C 9.585938 -12.957031 8.722656 -11.882812 8.203125 -10.40625 Z M 19.125 -7.96875 "/></g></g></g><g fill="#000000" fill-opacity="1"><g transform="translate(220.549888, 77.956798)"><g/></g></g><g fill="#000000" fill-opacity="1"><g transform="translate(228.515272, 80.501974)"><g><path d="M 27.3125 -14.859375 L 25.796875 -11.8125 L 16.109375 -16.65625 L 12.734375 -9.921875 L 20.296875 -6.140625 L 18.765625 -3.078125 L 11.203125 -6.859375 L 6.203125 3.109375 L 2.453125 1.234375 L 13.875 -21.578125 Z M 27.3125 -14.859375 "/></g></g></g><g fill="#000000" fill-opacity="1"><g transform="translate(244.131389, 88.405532)"><g><path d="M 15.46875 -10.390625 C 16.550781 -10.898438 17.671875 -11.101562 18.828125 -11 C 19.992188 -10.90625 21.15625 -10.46875 22.3125 -9.6875 L 19.875 -6.109375 L 19 -6.703125 C 17.632812 -7.628906 16.367188 -7.984375 15.203125 -7.765625 C 14.035156 -7.554688 12.878906 -6.601562 11.734375 -4.90625 L 5.734375 3.90625 L 2.28125 1.546875 L 13.65625 -15.1875 L 17.109375 -12.828125 Z M 15.46875 -10.390625 "/></g></g></g><g fill="#000000" fill-opacity="1"><g transform="translate(254.779252, 95.072788)"><g><path d="M 8.234375 8.078125 C 6.835938 6.785156 5.867188 5.296875 5.328125 3.609375 C 4.785156 1.921875 4.726562 0.203125 5.15625 -1.546875 C 5.582031 -3.304688 6.503906 -4.945312 7.921875 -6.46875 C 9.316406 -7.976562 10.890625 -9.007812 12.640625 -9.5625 C 14.390625 -10.113281 16.128906 -10.164062 17.859375 -9.71875 C 19.585938 -9.28125 21.160156 -8.40625 22.578125 -7.09375 C 23.992188 -5.78125 24.984375 -4.273438 25.546875 -2.578125 C 26.117188 -0.890625 26.191406 0.84375 25.765625 2.625 C 25.347656 4.414062 24.441406 6.066406 23.046875 7.578125 C 21.640625 9.085938 20.050781 10.101562 18.28125 10.625 C 16.519531 11.15625 14.757812 11.191406 13 10.734375 C 11.238281 10.285156 9.648438 9.398438 8.234375 8.078125 Z M 10.703125 5.421875 C 11.484375 6.148438 12.394531 6.648438 13.4375 6.921875 C 14.476562 7.191406 15.566406 7.144531 16.703125 6.78125 C 17.835938 6.425781 18.90625 5.710938 19.90625 4.640625 C 20.90625 3.554688 21.539062 2.453125 21.8125 1.328125 C 22.082031 0.203125 22.050781 -0.859375 21.71875 -1.859375 C 21.382812 -2.867188 20.828125 -3.738281 20.046875 -4.46875 C 19.253906 -5.195312 18.347656 -5.691406 17.328125 -5.953125 C 16.304688 -6.210938 15.253906 -6.148438 14.171875 -5.765625 C 13.085938 -5.390625 12.046875 -4.660156 11.046875 -3.578125 C 9.554688 -1.984375 8.816406 -0.375 8.828125 1.25 C 8.835938 2.882812 9.460938 4.273438 10.703125 5.421875 Z M 10.703125 5.421875 "/></g></g></g><g fill="#000000" fill-opacity="1"><g transform="translate(270.653498, 109.538083)"><g><path d="M 24.25 -1.671875 C 25.1875 -0.398438 25.757812 0.9375 25.96875 2.34375 C 26.175781 3.757812 25.96875 5.132812 25.34375 6.46875 C 24.726562 7.8125 23.679688 9.023438 22.203125 10.109375 L 12.5625 17.15625 L 10.109375 13.8125 L 19.234375 7.125 C 20.703125 6.0625 21.554688 4.875 21.796875 3.5625 C 22.035156 2.257812 21.691406 0.976562 20.765625 -0.28125 C 19.835938 -1.550781 18.710938 -2.269531 17.390625 -2.4375 C 16.078125 -2.601562 14.6875 -2.15625 13.21875 -1.09375 L 4.09375 5.59375 L 1.625 2.21875 L 17.953125 -9.734375 L 20.421875 -6.359375 L 18.5625 -4.984375 C 19.632812 -4.921875 20.671875 -4.597656 21.671875 -4.015625 C 22.679688 -3.429688 23.539062 -2.648438 24.25 -1.671875 Z M 24.25 -1.671875 "/></g></g></g><g fill="#000000" fill-opacity="1"><g transform="translate(283.568197, 127.63014)"><g><path d="M 18.4375 -1 L 8.515625 4.1875 C 7.835938 4.53125 7.4375 4.9375 7.3125 5.40625 C 7.1875 5.875 7.316406 6.488281 7.703125 7.25 L 8.90625 9.53125 L 5.8125 11.140625 L 4.28125 8.203125 C 3.40625 6.523438 3.125 5.039062 3.4375 3.75 C 3.757812 2.457031 4.800781 1.351562 6.5625 0.4375 L 16.484375 -4.75 L 15.390625 -6.859375 L 18.421875 -8.4375 L 19.515625 -6.328125 L 23.984375 -8.65625 L 25.9375 -4.90625 L 21.46875 -2.578125 L 23.75 1.78125 L 20.71875 3.359375 Z M 18.4375 -1 "/></g></g></g><g fill="#000000" fill-opacity="1"><g transform="translate(289.547645, 138.270708)"><g><path d="M 20.28125 12.21875 L 16.953125 13.390625 L 11.9375 -0.84375 L 15.265625 -2.015625 Z M 20.28125 12.21875 "/></g></g></g><g fill="#000000" fill-opacity="1"><g transform="translate(296.172536, 156.899458)"><g><path d="M 23 2.96875 L 15.640625 4.28125 L 17.1875 12.96875 L 13.8125 13.5625 L 12.265625 4.875 L 4.578125 6.234375 L 6.3125 16.015625 L 2.9375 16.609375 L 0.484375 2.703125 L 25.65625 -1.75 L 28.109375 12.15625 L 24.734375 12.75 Z M 23 2.96875 "/></g></g></g><g fill="#000000" fill-opacity="1"><g transform="translate(299.562313, 174.036421)"><g><path d="M 20.578125 12.9375 C 20.578125 14.519531 20.25 15.941406 19.59375 17.203125 C 18.9375 18.460938 17.957031 19.453125 16.65625 20.171875 C 15.363281 20.890625 13.800781 21.25 11.96875 21.25 L 0.03125 21.265625 L 0.03125 17.109375 L 11.34375 17.09375 C 13.15625 17.09375 14.539062 16.632812 15.5 15.71875 C 16.457031 14.8125 16.9375 13.578125 16.9375 12.015625 C 16.9375 10.441406 16.453125 9.195312 15.484375 8.28125 C 14.523438 7.375 13.140625 6.921875 11.328125 6.921875 L 0.015625 6.9375 L 0 2.75 L 20.234375 2.71875 L 20.25 6.90625 L 17.9375 6.90625 C 18.769531 7.59375 19.414062 8.46875 19.875 9.53125 C 20.34375 10.59375 20.578125 11.726562 20.578125 12.9375 Z M 20.578125 12.9375 "/></g></g></g><g fill="#000000" fill-opacity="1"><g transform="translate(299.848316, 195.863183)"><g><path d="M 9.75 3.296875 C 11.738281 3.691406 13.421875 4.453125 14.796875 5.578125 C 16.171875 6.710938 17.144531 8.082031 17.71875 9.6875 C 18.289062 11.289062 18.40625 12.96875 18.0625 14.71875 C 17.800781 16.007812 17.265625 17.226562 16.453125 18.375 C 15.640625 19.53125 14.691406 20.390625 13.609375 20.953125 L 23.1875 22.84375 L 22.375 26.984375 L -4.28125 21.71875 L -3.46875 17.578125 L -0.484375 18.171875 C -1.304688 17.316406 -1.910156 16.226562 -2.296875 14.90625 C -2.691406 13.59375 -2.738281 12.171875 -2.4375 10.640625 C -2.09375 8.910156 -1.34375 7.414062 -0.1875 6.15625 C 0.96875 4.894531 2.410156 4.003906 4.140625 3.484375 C 5.878906 2.972656 7.75 2.910156 9.75 3.296875 Z M 6.484375 19.546875 C 7.847656 19.816406 9.085938 19.765625 10.203125 19.390625 C 11.316406 19.023438 12.226562 18.441406 12.9375 17.640625 C 13.65625 16.835938 14.117188 15.90625 14.328125 14.84375 C 14.535156 13.789062 14.46875 12.753906 14.125 11.734375 C 13.789062 10.710938 13.179688 9.820312 12.296875 9.0625 C 11.410156 8.300781 10.285156 7.785156 8.921875 7.515625 C 7.546875 7.242188 6.285156 7.285156 5.140625 7.640625 C 4.003906 8.003906 3.078125 8.597656 2.359375 9.421875 C 1.640625 10.242188 1.175781 11.171875 0.96875 12.203125 C 0.757812 13.265625 0.828125 14.300781 1.171875 15.3125 C 1.515625 16.320312 2.140625 17.210938 3.046875 17.984375 C 3.960938 18.753906 5.109375 19.273438 6.484375 19.546875 Z M 6.484375 19.546875 "/></g></g></g><g fill="#000000" fill-opacity="1"><g transform="translate(294.893096, 218.743148)"><g/></g></g><g fill="#000000" fill-opacity="1"><g transform="translate(292.04012, 227.024271)"><g><path d="M -2 3.984375 C -1.695312 3.296875 -1.207031 2.816406 -0.53125 2.546875 C 0.132812 2.273438 0.816406 2.285156 1.515625 2.578125 C 2.210938 2.878906 2.695312 3.367188 2.96875 4.046875 C 3.238281 4.734375 3.222656 5.421875 2.921875 6.109375 C 2.628906 6.785156 2.144531 7.253906 1.46875 7.515625 C 0.789062 7.785156 0.101562 7.769531 -0.59375 7.46875 C -1.289062 7.175781 -1.769531 6.691406 -2.03125 6.015625 C -2.300781 5.335938 -2.289062 4.660156 -2 3.984375 Z M -2 3.984375 "/></g></g></g><g fill="#000000" fill-opacity="1"><g transform="translate(288.882879, 234.442221)"><g/></g></g><g fill="#000000" fill-opacity="1"><g transform="translate(285.703536, 241.939632)"><g><path d="M 16.703125 20.484375 L 3.484375 11 C 1.921875 9.875 0.445312 9.441406 -0.9375 9.703125 C -2.320312 9.960938 -3.546875 10.828125 -4.609375 12.296875 C -5.671875 13.785156 -6.097656 15.222656 -5.890625 16.609375 C -5.691406 18.003906 -4.8125 19.265625 -3.25 20.390625 L 9.96875 29.875 L 7.53125 33.28125 L -5.625 23.84375 C -7.3125 22.625 -8.476562 21.226562 -9.125 19.65625 C -9.78125 18.082031 -9.953125 16.472656 -9.640625 14.828125 C -9.328125 13.179688 -8.632812 11.609375 -7.5625 10.109375 C -6.488281 8.617188 -5.226562 7.46875 -3.78125 6.65625 C -2.332031 5.851562 -0.765625 5.507812 0.921875 5.625 C 2.617188 5.75 4.3125 6.421875 6 7.640625 L 19.15625 17.078125 Z M 16.703125 20.484375 "/></g></g></g><g fill="#000000" fill-opacity="1"><g transform="translate(271.461355, 261.035433)"><g><path d="M 13.640625 22.65625 L -4.796875 5.015625 L -1.90625 1.984375 L 16.53125 19.625 Z M 13.640625 22.65625 "/></g></g></g><g fill="#000000" fill-opacity="1"><g transform="translate(265.823644, 267.403808)"><g><path d="M 9.546875 37.125 L -8.984375 -0.875 L -5.8125 -3.515625 L 12.75 34.46875 Z M 9.546875 37.125 "/></g></g></g><g fill="#000000" fill-opacity="1"><g transform="translate(252.971541, 278.63899)"><g><path d="M 6.53125 25.609375 L -1.46875 11.4375 C -2.414062 9.757812 -3.570312 8.742188 -4.9375 8.390625 C -6.300781 8.046875 -7.769531 8.320312 -9.34375 9.21875 C -10.9375 10.113281 -11.9375 11.234375 -12.34375 12.578125 C -12.75 13.929688 -12.476562 15.445312 -11.53125 17.125 L -3.53125 31.296875 L -7.1875 33.359375 L -15.140625 19.265625 C -16.171875 17.453125 -16.644531 15.691406 -16.5625 13.984375 C -16.476562 12.273438 -15.953125 10.738281 -14.984375 9.375 C -14.015625 8.019531 -12.726562 6.890625 -11.125 5.984375 C -9.519531 5.085938 -7.890625 4.578125 -6.234375 4.453125 C -4.578125 4.328125 -3.007812 4.675781 -1.53125 5.5 C -0.0625 6.332031 1.1875 7.65625 2.21875 9.46875 L 10.171875 23.5625 Z M 6.53125 25.609375 "/></g></g></g><g fill="#000000" fill-opacity="1"><g transform="translate(232.76363, 290.220649)"><g><path d="M -9.828125 16.578125 L -21.3125 6.921875 L -16.828125 5.46875 L -8.5 12.484375 L -6.21875 2.015625 L -1.78125 0.578125 L -5.375 15.140625 L 6.140625 24.828125 L 1.671875 26.28125 L -6.734375 19.203125 L -9 29.75 L -13.453125 31.203125 Z M -9.828125 16.578125 "/></g></g></g><g fill="#000000" fill-opacity="1"><g transform="translate(210.980926, 296.879768)"><g/></g></g><g fill="#000000" fill-opacity="1"><g transform="translate(203.141746, 299.0008)"><g><path d="M -10.203125 25.890625 C -12.910156 25.984375 -15.300781 25.546875 -17.375 24.578125 C -19.457031 23.609375 -21.085938 22.171875 -22.265625 20.265625 C -23.453125 18.359375 -24.09375 16.113281 -24.1875 13.53125 C -24.269531 10.9375 -23.785156 8.660156 -22.734375 6.703125 C -21.691406 4.753906 -20.164062 3.238281 -18.15625 2.15625 C -16.15625 1.070312 -13.800781 0.484375 -11.09375 0.390625 L -2.75 0.09375 L -1.859375 25.59375 Z M -10.96875 3.8125 C -13.9375 3.914062 -16.191406 4.800781 -17.734375 6.46875 C -19.273438 8.132812 -19.992188 10.4375 -19.890625 13.375 C -19.785156 16.320312 -18.90625 18.601562 -17.25 20.21875 C -15.601562 21.832031 -13.296875 22.585938 -10.328125 22.484375 L -6.171875 22.328125 L -6.8125 3.65625 Z M -10.96875 3.8125 "/></g></g></g><g fill="#000000" fill-opacity="1"><g transform="translate(179.157309, 299.878181)"><g><path d="M -22.71875 7.046875 C -22.59375 6.296875 -22.4375 5.628906 -22.25 5.046875 L -6.984375 7.546875 C -6.847656 5.921875 -7.234375 4.535156 -8.140625 3.390625 C -9.046875 2.242188 -10.269531 1.546875 -11.8125 1.296875 C -14.039062 0.941406 -15.765625 1.617188 -16.984375 3.328125 L -21.453125 2.609375 C -20.546875 0.867188 -19.207031 -0.453125 -17.4375 -1.359375 C -15.664062 -2.273438 -13.601562 -2.546875 -11.25 -2.171875 C -9.351562 -1.859375 -7.71875 -1.148438 -6.34375 -0.046875 C -4.96875 1.054688 -3.976562 2.457031 -3.375 4.15625 C -2.769531 5.851562 -2.632812 7.734375 -2.96875 9.796875 C -3.300781 11.835938 -4.007812 13.570312 -5.09375 15 C -6.1875 16.425781 -7.554688 17.4375 -9.203125 18.03125 C -10.847656 18.632812 -12.644531 18.773438 -14.59375 18.453125 C -16.488281 18.148438 -18.101562 17.46875 -19.4375 16.40625 C -20.78125 15.34375 -21.738281 14 -22.3125 12.375 C -22.894531 10.757812 -23.03125 8.984375 -22.71875 7.046875 Z M -18.625 9.0625 C -18.851562 10.582031 -18.507812 11.890625 -17.59375 12.984375 C -16.675781 14.078125 -15.429688 14.75 -13.859375 15 C -12.429688 15.226562 -11.132812 14.972656 -9.96875 14.234375 C -8.8125 13.492188 -8.015625 12.367188 -7.578125 10.859375 Z M -18.625 9.0625 "/></g></g></g><g fill="#000000" fill-opacity="1"><g transform="translate(158.530146, 296.533166)"><g><path d="M -9.4375 -3.59375 C -7.9375 -3.082031 -6.679688 -2.347656 -5.671875 -1.390625 C -4.660156 -0.441406 -3.96875 0.617188 -3.59375 1.796875 C -3.226562 2.984375 -3.222656 4.15625 -3.578125 5.3125 L -7.671875 3.90625 C -7.472656 3.082031 -7.628906 2.273438 -8.140625 1.484375 C -8.648438 0.691406 -9.441406 0.113281 -10.515625 -0.25 C -11.617188 -0.632812 -12.550781 -0.71875 -13.3125 -0.5 C -14.082031 -0.28125 -14.582031 0.164062 -14.8125 0.84375 C -15.0625 1.550781 -14.90625 2.195312 -14.34375 2.78125 C -13.78125 3.375 -12.828125 4.128906 -11.484375 5.046875 C -10.179688 5.929688 -9.144531 6.710938 -8.375 7.390625 C -7.601562 8.078125 -7.015625 8.914062 -6.609375 9.90625 C -6.210938 10.90625 -6.234375 12.03125 -6.671875 13.28125 C -7.023438 14.300781 -7.644531 15.128906 -8.53125 15.765625 C -9.414062 16.398438 -10.503906 16.765625 -11.796875 16.859375 C -13.097656 16.960938 -14.476562 16.757812 -15.9375 16.25 C -18.113281 15.507812 -19.675781 14.359375 -20.625 12.796875 C -21.570312 11.242188 -21.769531 9.5 -21.21875 7.5625 L -17.25 8.9375 C -17.476562 9.8125 -17.367188 10.609375 -16.921875 11.328125 C -16.472656 12.054688 -15.710938 12.601562 -14.640625 12.96875 C -13.597656 13.332031 -12.726562 13.414062 -12.03125 13.21875 C -11.34375 13.019531 -10.890625 12.59375 -10.671875 11.9375 C -10.492188 11.425781 -10.53125 10.929688 -10.78125 10.453125 C -11.03125 9.984375 -11.382812 9.554688 -11.84375 9.171875 C -12.3125 8.796875 -13.019531 8.28125 -13.96875 7.625 C -15.21875 6.769531 -16.222656 6 -16.984375 5.3125 C -17.742188 4.625 -18.320312 3.796875 -18.71875 2.828125 C -19.113281 1.867188 -19.113281 0.769531 -18.71875 -0.46875 C -18.34375 -1.5625 -17.703125 -2.425781 -16.796875 -3.0625 C -15.898438 -3.707031 -14.820312 -4.085938 -13.5625 -4.203125 C -12.300781 -4.316406 -10.925781 -4.113281 -9.4375 -3.59375 Z M -9.4375 -3.59375 "/></g></g></g><g fill="#000000" fill-opacity="1"><g transform="translate(141.262951, 290.362651)"><g><path d="M -14.359375 18.5 C -13.671875 18.832031 -13.207031 19.34375 -12.96875 20.03125 C -12.726562 20.71875 -12.773438 21.40625 -13.109375 22.09375 C -13.441406 22.78125 -13.953125 23.242188 -14.640625 23.484375 C -15.328125 23.722656 -16.015625 23.675781 -16.703125 23.34375 C -17.359375 23.03125 -17.804688 22.523438 -18.046875 21.828125 C -18.285156 21.140625 -18.238281 20.453125 -17.90625 19.765625 C -17.570312 19.078125 -17.0625 18.613281 -16.375 18.375 C -15.6875 18.144531 -15.015625 18.1875 -14.359375 18.5 Z M -15.046875 15.203125 L -6.25 -3.015625 L -2.46875 -1.203125 L -11.265625 17.015625 Z M -15.046875 15.203125 "/></g></g></g><g fill="#000000" fill-opacity="1"><g transform="translate(133.535849, 287.331401)"><g><path d="M -20.484375 11.03125 C -21.785156 10.164062 -22.769531 9.132812 -23.4375 7.9375 C -24.101562 6.738281 -24.460938 5.566406 -24.515625 4.421875 L -26.15625 6.875 L -29.65625 4.53125 L -18.21875 -12.5625 C -17.1875 -14.113281 -15.941406 -15.273438 -14.484375 -16.046875 C -13.023438 -16.828125 -11.445312 -17.148438 -9.75 -17.015625 C -8.050781 -16.890625 -6.351562 -16.253906 -4.65625 -15.109375 C -2.375 -13.585938 -0.835938 -11.789062 -0.046875 -9.71875 C 0.742188 -7.644531 0.632812 -5.617188 -0.375 -3.640625 L -3.828125 -5.953125 C -3.515625 -7.003906 -3.609375 -8.085938 -4.109375 -9.203125 C -4.609375 -10.328125 -5.460938 -11.289062 -6.671875 -12.09375 C -8.066406 -13.03125 -9.484375 -13.359375 -10.921875 -13.078125 C -12.367188 -12.804688 -13.632812 -11.851562 -14.71875 -10.21875 L -16.59375 -7.421875 C -15.46875 -7.828125 -14.21875 -7.957031 -12.84375 -7.8125 C -11.476562 -7.675781 -10.15625 -7.179688 -8.875 -6.328125 C -7.414062 -5.347656 -6.328125 -4.082031 -5.609375 -2.53125 C -4.890625 -0.976562 -4.625 0.695312 -4.8125 2.5 C -5 4.300781 -5.660156 6.046875 -6.796875 7.734375 C -7.921875 9.421875 -9.269531 10.679688 -10.84375 11.515625 C -12.414062 12.347656 -14.050781 12.71875 -15.75 12.625 C -17.445312 12.539062 -19.023438 12.007812 -20.484375 11.03125 Z M -20.546875 -1.515625 C -21.316406 -0.359375 -21.742188 0.800781 -21.828125 1.96875 C -21.921875 3.144531 -21.726562 4.210938 -21.25 5.171875 C -20.78125 6.128906 -20.097656 6.910156 -19.203125 7.515625 C -18.304688 8.109375 -17.320312 8.445312 -16.25 8.53125 C -15.1875 8.613281 -14.132812 8.390625 -13.09375 7.859375 C -12.050781 7.335938 -11.144531 6.5 -10.375 5.34375 C -9.59375 4.1875 -9.144531 3.007812 -9.03125 1.8125 C -8.925781 0.625 -9.113281 -0.457031 -9.59375 -1.4375 C -10.082031 -2.425781 -10.765625 -3.210938 -11.640625 -3.796875 C -12.535156 -4.398438 -13.515625 -4.734375 -14.578125 -4.796875 C -15.648438 -4.867188 -16.71875 -4.628906 -17.78125 -4.078125 C -18.84375 -3.535156 -19.765625 -2.679688 -20.546875 -1.515625 Z M -20.546875 -1.515625 "/></g></g></g><g fill="#000000" fill-opacity="1"><g transform="translate(114.423636, 274.730708)"><g><path d="M -23.71875 5.359375 C -24.832031 4.242188 -25.597656 3.003906 -26.015625 1.640625 C -26.441406 0.285156 -26.445312 -1.097656 -26.03125 -2.515625 C -25.625 -3.929688 -24.769531 -5.289062 -23.46875 -6.59375 L -15.03125 -15.03125 L -12.09375 -12.09375 L -20.09375 -4.09375 C -21.375 -2.8125 -22.035156 -1.507812 -22.078125 -0.1875 C -22.117188 1.132812 -21.585938 2.347656 -20.484375 3.453125 C -19.367188 4.566406 -18.144531 5.101562 -16.8125 5.0625 C -15.488281 5.03125 -14.1875 4.375 -12.90625 3.09375 L -4.90625 -4.90625 L -1.9375 -1.9375 L -16.25 12.375 L -19.21875 9.40625 L -17.578125 7.765625 C -18.660156 7.867188 -19.738281 7.707031 -20.8125 7.28125 C -21.894531 6.851562 -22.863281 6.210938 -23.71875 5.359375 Z M -23.71875 5.359375 "/></g></g></g><g fill="#000000" fill-opacity="1"><g transform="translate(98.856513, 259.348674)"><g><path d="M -20.75 -11.625 C -20.125 -12.050781 -19.535156 -12.394531 -18.984375 -12.65625 L -10.28125 0.125 C -9.007812 -0.894531 -8.269531 -2.125 -8.0625 -3.5625 C -7.863281 -5.007812 -8.207031 -6.378906 -9.09375 -7.671875 C -10.351562 -9.523438 -12.023438 -10.3125 -14.109375 -10.03125 L -16.65625 -13.765625 C -14.769531 -14.296875 -12.882812 -14.234375 -11 -13.578125 C -9.125 -12.921875 -7.519531 -11.613281 -6.1875 -9.65625 C -5.101562 -8.0625 -4.488281 -6.382812 -4.34375 -4.625 C -4.195312 -2.875 -4.53125 -1.195312 -5.34375 0.40625 C -6.15625 2.019531 -7.421875 3.410156 -9.140625 4.578125 C -10.859375 5.742188 -12.609375 6.425781 -14.390625 6.625 C -16.171875 6.820312 -17.847656 6.523438 -19.421875 5.734375 C -20.992188 4.953125 -22.335938 3.742188 -23.453125 2.109375 C -24.523438 0.523438 -25.132812 -1.113281 -25.28125 -2.8125 C -25.425781 -4.507812 -25.113281 -6.125 -24.34375 -7.65625 C -23.570312 -9.195312 -22.375 -10.519531 -20.75 -11.625 Z M -19.390625 -7.265625 C -20.660156 -6.378906 -21.375 -5.226562 -21.53125 -3.8125 C -21.6875 -2.394531 -21.316406 -1.03125 -20.421875 0.28125 C -19.609375 1.46875 -18.53125 2.226562 -17.1875 2.5625 C -15.851562 2.90625 -14.488281 2.710938 -13.09375 1.984375 Z M -19.390625 -7.265625 "/></g></g></g><g fill="#000000" fill-opacity="1"><g transform="translate(87.149257, 241.810306)"><g><path d="M -18.59375 1.265625 C -19.789062 1.160156 -20.867188 0.773438 -21.828125 0.109375 C -22.785156 -0.554688 -23.566406 -1.515625 -24.171875 -2.765625 L -20.28125 -4.640625 L -19.8125 -3.6875 C -19.101562 -2.207031 -18.1875 -1.269531 -17.0625 -0.875 C -15.945312 -0.476562 -14.460938 -0.722656 -12.609375 -1.609375 L -3.015625 -6.25 L -1.203125 -2.46875 L -19.421875 6.328125 L -21.234375 2.546875 Z M -18.59375 1.265625 "/></g></g></g><g fill="#000000" fill-opacity="1"><g transform="translate(81.504609, 229.982122)"><g/></g></g><g fill="#000000" fill-opacity="1"><g transform="translate(78.443467, 221.806727)"><g/></g></g></svg>