<?xml version="1.0" encoding="UTF-8"?> <!-- Generator: Adobe Illustrator 27.2.0, SVG Export Plug-In . SVG Version: 6.00 Build 0) --> <svg xmlns="http://www.w3.org/2000/svg" xmlns:xlink="http://www.w3.org/1999/xlink" version="1.1" x="0px" y="0px" viewBox="0 0 512 512" style="enable-background:new 0 0 512 512;" xml:space="preserve"> <style type="text/css"> .st0{display:none;} .st1{fill:#5382A1;} .st2{fill:#E76F00;} .st3{fill:#61DAFB;} .st4{fill:#DD0031;} .st5{fill:#C3002F;} .st6{fill:#FFFFFF;} .st7{fill:#4DBA87;} .st8{fill:#435466;} .st9{display:inline;fill:#00ACD7;} .st10{fill:#512BD4;} .st11{fill-rule:evenodd;clip-rule:evenodd;fill:#8993BE;} .st12{fill-rule:evenodd;clip-rule:evenodd;fill:#232531;} .st13{fill:#5C8DBC;} .st14{fill:#1A4674;} .st15{fill:#1B598E;} .st16{fill:#8CC84B;} .st17{fill:url(#SVGID_1_);} .st18{fill:url(#SVGID_00000157308670109110859190000005899334351180860585_);} .st19{fill:#DC395F;} .st20{fill:#001E36;} .st21{display:inline;fill:#31A8FF;} .st22{fill:#470137;} .st23{display:inline;fill:#FF61F6;} .st24{fill:none;} .st25{fill:#1ABCFE;} .st26{fill:#0ACF83;} .st27{fill:#FF7262;} .st28{fill:#F24E1E;} .st29{fill:#A259FF;} .st30{display:inline;fill-rule:evenodd;clip-rule:evenodd;fill:#EA6C00;} .st31{display:inline;fill-rule:evenodd;clip-rule:evenodd;fill:#FDAD00;} .st32{display:inline;fill-rule:evenodd;clip-rule:evenodd;fill:#FDD231;} .st33{display:inline;fill-rule:evenodd;clip-rule:evenodd;fill:#FEEEB7;} .st34{fill:#0091E2;} </style> <g id="Layer_1" class="st0"> <g id="java"> <path class="st1" d="M188.75,395.96c0,0-19.57,11.38,13.92,15.23c40.57,4.63,61.31,3.96,106.02-4.5c0,0,11.75,7.37,28.17,13.75 C236.63,463.4,110.02,417.96,188.75,395.96 M176.5,339.9c0,0-21.94,16.24,11.57,19.71c43.34,4.47,77.57,4.84,136.79-6.57 c0,0,8.19,8.3,21.07,12.85C224.75,401.33,89.78,368.69,176.5,339.9"></path> <path class="st2" d="M279.75,244.81c24.7,28.43-6.49,54.02-6.49,54.02s62.71-32.37,33.91-72.91 c-26.9-37.81-47.52-56.59,64.14-121.35C371.31,104.57,196.03,148.35,279.75,244.81"></path> <path class="st1" d="M412.31,437.42c0,0,14.48,11.93-15.95,21.16c-57.85,17.53-240.79,22.82-291.61,0.7 c-18.27-7.95,15.99-18.98,26.77-21.29c11.24-2.44,17.66-1.98,17.66-1.98c-20.32-14.31-131.32,28.1-56.38,40.25 C297.15,509.39,465.32,461.33,412.31,437.42 M198.16,281.82c0,0-93.06,22.1-32.95,30.13c25.38,3.4,75.97,2.63,123.09-1.32 c38.51-3.25,77.18-10.15,77.18-10.15s-13.58,5.82-23.4,12.52c-94.5,24.85-277.04,13.29-224.49-12.13 C162.02,279.38,198.16,281.82,198.16,281.82 M365.09,375.13c96.06-49.92,51.65-97.89,20.64-91.42c-7.6,1.58-10.99,2.95-10.99,2.95 s2.82-4.42,8.21-6.33c61.33-21.56,108.49,63.59-19.8,97.32C363.15,377.65,364.64,376.32,365.09,375.13"></path> <path class="st2" d="M307.17,0c0,0,53.2,53.22-50.46,135.05c-83.12,65.64-18.95,103.07-0.03,145.84 c-48.52-43.78-84.13-82.31-60.24-118.18C231.5,110.06,328.64,84.53,307.17,0"></path> <path class="st1" d="M207.6,510.39c92.2,5.9,233.8-3.27,237.15-46.9c0,0-6.44,16.54-76.2,29.67 c-78.7,14.81-175.76,13.08-233.33,3.59C135.21,496.75,147,506.5,207.6,510.39"></path> </g> <g id="react"> <path class="st3" d="M512,256.01c0-33.86-42.41-65.96-107.43-85.86c15-66.27,8.34-118.99-21.05-135.87 c-6.77-3.96-14.69-5.84-23.34-5.84v23.24c4.79,0,8.65,0.94,11.88,2.71c14.17,8.13,20.32,39.07,15.53,78.88 c-1.15,9.79-3.02,20.11-5.31,30.63c-20.42-5-42.72-8.86-66.17-11.36c-14.07-19.28-28.65-36.78-43.35-52.1 c33.97-31.57,65.85-48.87,87.53-48.87V28.34c-28.65,0-66.17,20.42-104.09,55.85c-37.93-35.22-75.44-55.43-104.09-55.43v23.24 c21.57,0,53.56,17.19,87.53,48.56c-14.59,15.32-29.18,32.72-43.03,51.99c-23.55,2.5-45.85,6.36-66.27,11.46 c-2.4-10.42-4.17-20.53-5.42-30.22c-4.9-39.8,1.15-70.75,15.21-78.98c3.13-1.88,7.19-2.71,11.98-2.71V28.86 c-8.75,0-16.67,1.88-23.55,5.84c-29.28,16.88-35.84,69.5-20.74,135.56C43.01,190.26,0.81,222.25,0.81,256.01 c0,33.86,42.41,65.96,107.43,85.86c-15,66.27-8.34,118.99,21.05,135.87c6.77,3.96,14.69,5.84,23.44,5.84 c28.65,0,66.17-20.42,104.09-55.85c37.93,35.22,75.44,55.43,104.09,55.43c8.75,0,16.67-1.88,23.55-5.84 c29.28-16.88,35.84-69.5,20.74-135.56C469.8,321.86,512,289.77,512,256.01L512,256.01z M376.34,186.51 c-3.86,13.44-8.65,27.3-14.07,41.16c-4.27-8.34-8.75-16.67-13.65-25.01c-4.79-8.34-9.9-16.46-15-24.38 C348.41,180.47,362.69,183.18,376.34,186.51L376.34,186.51z M328.61,297.48c-8.13,14.07-16.46,27.4-25.11,39.8 c-15.53,1.35-31.26,2.08-47.1,2.08c-15.73,0-31.47-0.73-46.89-1.98c-8.65-12.4-17.09-25.63-25.22-39.59 c-7.92-13.65-15.11-27.51-21.67-41.47c6.46-13.96,13.75-27.92,21.57-41.57c8.13-14.07,16.46-27.4,25.11-39.8 c15.53-1.35,31.26-2.08,47.1-2.08c15.73,0,31.47,0.73,46.89,1.98c8.65,12.4,17.09,25.63,25.22,39.59 c7.92,13.65,15.11,27.51,21.67,41.47C343.62,269.87,336.43,283.83,328.61,297.48L328.61,297.48z M362.27,283.93 c5.63,13.96,10.42,27.92,14.38,41.47c-13.65,3.33-28.03,6.15-42.93,8.34c5.11-8.02,10.21-16.25,15-24.69 C353.52,300.71,358,292.27,362.27,283.93L362.27,283.93z M256.61,395.11c-9.69-10-19.38-21.15-28.97-33.34 c9.38,0.42,18.96,0.73,28.65,0.73c9.79,0,19.48-0.21,28.97-0.73C275.89,373.96,266.2,385.11,256.61,395.11z M179.09,333.74 c-14.8-2.19-29.07-4.9-42.72-8.23c3.86-13.44,8.65-27.3,14.07-41.16c4.27,8.34,8.75,16.67,13.65,25.01 C168.98,317.69,173.98,325.82,179.09,333.74z M256.09,116.91c9.69,10,19.38,21.15,28.97,33.34c-9.38-0.42-18.96-0.73-28.65-0.73 c-9.79,0-19.48,0.21-28.97,0.73C236.82,138.06,246.51,126.91,256.09,116.91z M178.99,178.28c-5.11,8.02-10.21,16.25-15,24.69 c-4.79,8.34-9.27,16.67-13.55,25.01c-5.63-13.96-10.42-27.92-14.38-41.47C149.71,183.28,164.09,180.47,178.99,178.28 L178.99,178.28z M84.69,308.73C47.8,293,23.94,272.37,23.94,256.01s23.86-37.09,60.75-52.72c8.96-3.86,18.76-7.29,28.86-10.52 c5.94,20.42,13.75,41.68,23.44,63.46c-9.59,21.67-17.3,42.83-23.13,63.14C103.55,316.13,93.75,312.59,84.69,308.73L84.69,308.73z M140.75,457.63c-14.17-8.13-20.32-39.07-15.53-78.88c1.15-9.79,3.02-20.11,5.31-30.63c20.42,5,42.72,8.86,66.17,11.36 c14.07,19.28,28.65,36.78,43.35,52.1c-33.97,31.57-65.85,48.87-87.53,48.87C147.83,460.34,143.87,459.4,140.75,457.63 L140.75,457.63z M387.9,378.23c4.9,39.8-1.15,70.75-15.21,78.98c-3.13,1.88-7.19,2.71-11.98,2.71 c-21.57,0-53.56-17.19-87.53-48.56c14.59-15.32,29.18-32.72,43.03-51.99c23.55-2.5,45.85-6.36,66.27-11.46 C384.88,358.44,386.75,368.54,387.9,378.23z M428.02,308.73c-8.96,3.86-18.76,7.29-28.86,10.52 c-5.94-20.42-13.75-41.68-23.44-63.46c9.59-21.67,17.3-42.83,23.13-63.14c10.32,3.23,20.11,6.77,29.28,10.63 c36.89,15.73,60.75,36.36,60.75,52.72C488.76,272.37,464.9,293.1,428.02,308.73L428.02,308.73z"></path> <circle class="st3" cx="256.3" cy="256.01" r="47.62"></circle> </g> <g id="angular"> <polygon class="st4" points="255.6,0 255.6,0 255.6,0 17.26,84.99 53.61,400.13 255.6,512 255.6,512 255.6,512 457.58,400.13 493.93,84.99 "></polygon> <polygon class="st5" points="255.6,0 255.6,56.83 255.6,56.58 255.6,315.9 255.6,315.9 255.6,512 255.6,512 457.58,400.13 493.93,84.99 "></polygon> <path class="st6" d="M255.6,56.58L106.6,390.66l0,0h55.55l0,0l29.95-74.75h126.46l29.95,74.75l0,0h55.55l0,0L255.6,56.58 L255.6,56.58L255.6,56.58L255.6,56.58L255.6,56.58z M299.12,269.82h-87.04l43.52-104.7L299.12,269.82z"></path> </g> <g id="vue"> <path class="st7" d="M315.13,34.42L256,136.82l-59.13-102.4H0l256,443.41L512,34.42H315.13z"></path> <path class="st8" d="M315.13,34.42L256,136.82l-59.13-102.4H102.4L256,300.46L409.6,34.42H315.13z"></path> </g> <g> <path class="st9" d="M38.49,218.36c-0.71,0-1.41-0.71-0.71-1.41l4.95-7.07c0.71-0.71,1.41-1.41,2.83-1.41h89.13 c0.71,0,1.41,0.71,0.71,1.41l-4.24,6.37c-0.71,0.71-1.41,1.41-2.83,1.41L38.49,218.36z M1,241c-0.71,0-1.41-0.71-0.71-1.41 l4.95-7.07c0.71-0.71,1.41-1.41,2.83-1.41h113.89c0.71,0,1.41,0.71,1.41,1.41l-2.12,7.07c0,0.71-1.41,1.41-2.12,1.41H1z M61.13,264.34c-0.71,0-1.41-0.71-0.71-1.41l3.54-6.37c0.71-0.71,1.41-1.41,2.83-1.41h49.52c0.71,0,1.41,0.71,1.41,1.41 l-0.71,5.66c0,0.71-0.71,1.41-1.41,1.41L61.13,264.34z M320.04,213.41l-41.74,10.61c-3.54,0.71-4.24,1.41-7.07-2.83 c-3.54-4.24-6.37-7.07-12.03-9.2c-15.56-7.78-31.13-5.66-45.27,3.54c-16.98,10.61-25.47,26.88-25.47,47.4 c0,19.81,14.15,36.08,33.96,38.91c16.98,2.12,31.13-3.54,42.44-16.27c2.12-2.83,4.24-5.66,7.07-9.2h-48.1 c-4.95,0-6.37-3.54-4.95-7.78c3.54-7.78,9.2-20.51,12.73-26.88c0.71-1.41,2.83-4.24,6.37-4.24h90.55 c-0.71,7.07-0.71,13.44-1.41,20.51c-2.83,17.69-9.2,34.66-20.51,48.81c-17.69,23.34-41.03,38.2-70.74,42.44 c-24.76,3.54-47.4-1.41-67.2-16.27c-18.39-14.15-29-32.54-31.83-55.18c-3.54-26.88,4.95-51.64,21.22-72.86 c17.69-23.34,41.03-38.2,70.03-43.15c23.34-4.24,45.98-1.41,65.79,12.03c13.44,8.49,22.64,20.51,29,35.37 C323.58,212,322.87,212.7,320.04,213.41L320.04,213.41z"></path> <path class="st9" d="M402.1,351.35c-22.64-0.71-43.15-7.07-60.84-21.93c-14.86-12.73-24.05-29-26.88-48.1 c-4.24-28.3,3.54-53.06,20.51-74.99c18.39-24.05,40.32-36.08,70.03-41.74c25.47-4.24,49.52-2.12,70.74,12.73 c19.81,13.44,31.83,31.83,35.37,55.89c4.24,33.96-5.66,60.84-28.3,84.18c-16.27,16.98-36.79,26.88-59.42,31.83 C415.54,350.65,408.47,350.65,402.1,351.35z M461.52,250.9c0-3.54,0-5.66-0.71-8.49c-4.24-24.76-26.88-38.91-50.93-33.25 c-23.34,4.95-38.2,19.81-43.86,43.15c-4.24,19.1,4.95,38.91,22.64,47.4c13.44,5.66,27.59,4.95,40.32-1.41 C449.5,288.4,460.11,272.13,461.52,250.9L461.52,250.9z"></path> </g> <g id="_x2E_net"> <rect x="0" class="st10" width="512" height="512"></rect> <path class="st6" d="M91.25,327.11c-3.62,0-6.7-1.21-9.23-3.62c-2.53-2.47-3.8-5.41-3.8-8.82c0-3.46,1.27-6.43,3.8-8.91 c2.53-2.47,5.61-3.71,9.23-3.71c3.68,0,6.79,1.24,9.32,3.71c2.59,2.47,3.89,5.44,3.89,8.91c0,3.4-1.3,6.34-3.89,8.82 C98.04,325.9,94.94,327.11,91.25,327.11z"></path> <path class="st6" d="M235.98,325.07h-23.53l-62-97.81c-1.57-2.47-2.87-5.04-3.89-7.7h-0.54c0.48,2.85,0.72,8.94,0.72,18.28v87.23 h-20.82V192h25.07l59.92,95.49c2.53,3.96,4.16,6.68,4.89,8.17h0.36c-0.6-3.53-0.9-9.5-0.9-17.91V192h20.73V325.07z"></path> <path class="st6" d="M337.35,325.07h-72.86V192h69.96v18.75h-48.42v37.67h44.62v18.65h-44.62v39.35h51.32V325.07z"></path> <path class="st6" d="M440.89,210.75H403.6v114.32h-21.54V210.75h-37.2V192h96.03V210.75z"></path> </g> <g id="php"> <ellipse class="st11" cx="256" cy="256.43" rx="256" ry="133.26"></ellipse> <path class="st12" d="M71.89,335.33L99.95,193.3h64.87c28.05,1.75,42.08,15.78,42.08,40.33c0,42.08-33.31,66.63-63.12,64.88 h-31.56l-7.01,36.82H71.89z M119.23,272.21l8.77-52.6h22.79c12.27,0,21.04,5.26,21.04,15.78c-1.75,29.81-15.78,35.07-31.56,36.82 L119.23,272.21L119.23,272.21z M200.38,298.51l28.05-142.03h33.32l-7.01,36.82h31.56c28.06,1.75,38.58,15.78,35.07,33.32 l-12.27,71.89h-35.07l12.27-64.88c1.75-8.77,1.75-14.03-10.52-14.03h-26.3l-15.78,78.9H200.38z M306.85,335.33L334.9,193.3h64.88 c28.06,1.75,42.08,15.78,42.08,40.33c0,42.08-33.32,66.63-63.12,64.88h-31.56l-7.01,36.82H306.85z M354.19,272.21l8.77-52.6h22.8 c12.27,0,21.04,5.26,21.04,15.78c-1.75,29.81-15.78,35.07-31.56,36.82H354.19L354.19,272.21z"></path> </g> <g id="c_x2B__x2B_"> <path class="st13" d="M483.96,150.53c0-8.61-1.84-16.22-5.57-22.75c-3.66-6.42-9.13-11.8-16.48-16.06 C401.27,76.76,340.56,41.9,279.94,6.89c-16.34-9.44-32.19-9.09-48.42,0.48C207.38,21.61,86.53,90.85,50.51,111.71 c-14.83,8.59-22.05,21.73-22.05,38.8c-0.02,70.32,0,140.65-0.02,210.97c0,8.42,1.77,15.88,5.33,22.31 c3.66,6.61,9.21,12.14,16.73,16.49c36.02,20.86,156.89,90.1,181.02,104.33c16.23,9.58,32.08,9.92,48.43,0.48 c60.63-35.01,121.34-69.87,181.99-104.84c7.52-4.35,13.07-9.88,16.73-16.49c3.55-6.43,5.32-13.89,5.32-22.31 C483.99,361.47,483.99,220.85,483.96,150.53"></path> <path class="st14" d="M256.91,255.31L33.76,383.8c3.66,6.61,9.21,12.14,16.73,16.49c36.02,20.86,156.89,90.1,181.02,104.33 c16.23,9.58,32.08,9.92,48.43,0.48c60.63-35.01,121.34-69.87,181.99-104.84c7.52-4.35,13.07-9.88,16.73-16.49L256.91,255.31"></path> <path class="st14" d="M190.82,293.37c12.98,22.67,37.39,37.96,65.4,37.96c28.17,0,52.72-15.48,65.64-38.39l-64.95-37.62 L190.82,293.37"></path> <path class="st15" d="M483.96,150.53c0-8.61-1.84-16.22-5.57-22.75L256.91,255.31l221.75,128.46c3.55-6.43,5.32-13.89,5.32-22.31 C483.99,361.47,483.99,220.85,483.96,150.53"></path> <path class="st6" d="M471.77,264.5h-17.33v17.33h-17.33V264.5h-17.33v-17.33h17.33v-17.33h17.33v17.33h17.33V264.5 M408.54,264.5 h-17.33v17.33h-17.33V264.5h-17.33v-17.33h17.33v-17.33h17.33v17.33h17.33V264.5"></path> <path class="st6" d="M321.86,292.94c-12.92,22.91-37.47,38.39-65.64,38.39c-28,0-52.41-15.29-65.4-37.96 c-6.52-11.37-9.95-24.26-9.94-37.37c0-41.6,33.73-75.33,75.33-75.33c27.82,0,52.1,15.1,65.15,37.54l65.84-37.92 c-26.17-45.18-75.03-75.57-131-75.57c-83.55,0-151.28,67.73-151.28,151.28c0,27.41,7.29,53.11,20.04,75.29 c26.11,45.42,75.11,76,131.25,76c56.24,0,105.32-30.7,131.39-76.25L321.86,292.94"></path> </g> <g id="node.js"> <path class="st16" d="M234.89,5.46c12.7-7.27,29.23-7.3,41.92,0c63.81,36.06,127.65,72.06,191.45,108.14 c12,6.76,20.03,20.12,19.91,33.94v216.94c0.09,14.4-8.73,28.07-21.39,34.68C403.17,435.02,339.6,470.93,276,506.79 c-12.96,7.41-29.83,6.84-42.38-1.18c-19.07-11.05-38.17-22.05-57.24-33.1c-3.9-2.32-8.29-4.17-11.04-7.95 c2.43-3.28,6.78-3.69,10.32-5.12c7.96-2.53,15.27-6.59,22.58-10.54c1.85-1.27,4.11-0.78,5.88,0.35 c16.31,9.35,32.47,18.97,48.83,28.23c3.49,2.01,7.02-0.66,10.01-2.32c62.41-35.28,124.91-70.42,187.31-105.7 c2.31-1.11,3.59-3.57,3.4-6.1c0.04-71.56,0.01-143.14,0.02-214.7c0.26-2.87-1.4-5.52-4-6.69 c-63.38-35.7-126.73-71.44-190.11-107.15c-2.25-1.55-5.21-1.55-7.47-0.01C188.75,70.52,125.41,106.3,62.04,142 c-2.59,1.18-4.33,3.78-4.02,6.66c0.01,71.56,0,143.14,0,214.71c-0.23,2.53,1.15,4.93,3.45,6.02 c16.91,9.59,33.84,19.11,50.77,28.67c9.53,5.13,21.24,8.18,31.74,4.25c9.27-3.32,15.77-12.78,15.59-22.62 c0.09-71.15-0.04-142.3,0.07-213.44c-0.23-3.16,2.76-5.77,5.84-5.47c8.13-0.05,16.26-0.11,24.39,0.02 c3.39-0.08,5.73,3.32,5.31,6.51c-0.03,71.6,0.09,143.19-0.05,214.79c0.02,19.08-7.82,39.84-25.47,49.18 c-21.74,11.26-48.62,8.88-70.1-1.93c-18.6-9.28-36.34-20.24-54.61-30.18c-12.69-6.57-21.47-20.3-21.38-34.69V147.54 c-0.13-14.11,8.21-27.71,20.59-34.37C107.73,77.28,171.31,41.37,234.89,5.46z"></path> <path class="st16" d="M290.37,155.74c27.74-1.79,57.43-1.06,82.39,12.61c19.32,10.47,30.04,32.45,30.38,53.91 c-0.54,2.9-3.57,4.49-6.33,4.29c-8.05-0.01-16.1,0.11-24.14-0.05c-3.41,0.13-5.4-3.02-5.83-6.03 c-2.31-10.27-7.91-20.45-17.58-25.4c-14.84-7.43-32.05-7.06-48.23-6.9c-11.81,0.63-24.52,1.65-34.53,8.6 c-7.68,5.26-10.02,15.89-7.28,24.44c2.59,6.14,9.68,8.13,15.48,9.95c33.42,8.74,68.84,7.87,101.63,19.38 c13.57,4.69,26.85,13.81,31.5,28.02c6.08,19.05,3.41,41.82-10.14,57.11c-10.99,12.58-27,19.43-42.96,23.15 c-21.24,4.74-43.28,4.86-64.85,2.75c-20.28-2.31-41.39-7.64-57.04-21.46c-13.39-11.62-19.93-29.74-19.28-47.22 c0.15-2.95,3.09-5.01,5.92-4.77c8.1-0.07,16.21-0.09,24.31,0.01c3.24-0.23,5.64,2.57,5.8,5.62c1.5,9.79,5.17,20.06,13.71,25.86 c16.47,10.63,37.14,9.9,55.99,10.2c15.62-0.69,33.16-0.9,45.91-11.23c6.73-5.89,8.72-15.74,6.9-24.22 c-1.97-7.16-9.46-10.49-15.89-12.67c-33-10.44-68.81-6.65-101.49-18.45c-13.27-4.69-26.09-13.55-31.19-27.18 c-7.11-19.29-3.85-43.15,11.12-57.92C249.26,163.42,270.33,157.76,290.37,155.74L290.37,155.74z"></path> </g> <g id="python"> <linearGradient id="SVGID_1_" gradientUnits="userSpaceOnUse" x1="1.0246" y1="512.975" x2="1.1615" y2="512.8392" gradientTransform="matrix(1849.2675 0 0 -1853.3917 -1846.8516 950791.625)"> <stop offset="0" style="stop-color:#387EB8"></stop> <stop offset="1" style="stop-color:#366994"></stop> </linearGradient> <path class="st17" d="M254.16,0.88c-129.98,0-121.86,56.37-121.86,56.37l0.14,58.4h124.04v17.53H83.17 c0,0-83.17-9.43-83.17,121.71c0,131.15,72.6,126.5,72.6,126.5h43.32v-60.86c0,0-2.34-72.6,71.44-72.6h123.02 c0,0,69.12,1.12,69.12-66.8V68.84C379.49,68.84,389.99,0.88,254.16,0.88z M185.76,40.16c12.31-0.01,22.3,9.96,22.31,22.27 c0,0.01,0,0.03,0,0.04c0.01,12.31-9.96,22.3-22.27,22.31c-0.01,0-0.03,0-0.04,0c-12.31,0.01-22.3-9.96-22.31-22.27 c0-0.01,0-0.03,0-0.04c-0.01-12.31,9.96-22.3,22.27-22.31C185.74,40.16,185.75,40.16,185.76,40.16z"></path> <linearGradient id="SVGID_00000121965944898368587420000013616298466458574727_" gradientUnits="userSpaceOnUse" x1="0.7604" y1="513.2265" x2="0.9074" y2="513.0872" gradientTransform="matrix(1849.2671 0 0 -1853.3918 -1202.3882 951419.0625)"> <stop offset="0" style="stop-color:#FFE052"></stop> <stop offset="1" style="stop-color:#FFC331"></stop> </linearGradient> <path style="fill:url(#SVGID_00000121965944898368587420000013616298466458574727_);" d="M257.85,510.22 c129.98,0,121.86-56.37,121.86-56.37l-0.14-58.39H255.53v-17.53h173.3c0,0,83.17,9.43,83.17-121.72 c0-131.15-72.6-126.5-72.6-126.5h-43.32v60.86c0,0,2.34,72.6-71.44,72.6H201.62c0,0-69.12-1.12-69.12,66.8v112.3 C132.51,442.26,122.01,510.22,257.85,510.22L257.85,510.22z M326.24,470.96c-12.31,0.01-22.3-9.96-22.31-22.27 c0-0.01,0-0.03,0-0.04c-0.01-12.31,9.96-22.3,22.27-22.32c0.01,0,0.03,0,0.04,0c12.31-0.01,22.3,9.96,22.31,22.27 c0,0.01,0,0.03,0,0.04c0.01,12.31-9.96,22.3-22.27,22.31C326.27,470.95,326.25,470.95,326.24,470.96L326.24,470.96z"></path> </g> <g id="invision"> <path class="st19" d="M465.59,0H46.41C20.78,0,0,20.78,0,46.41v419.17C0,491.22,20.78,512,46.41,512h419.17 c25.63,0,46.41-20.78,46.41-46.41V46.41C512,20.78,491.22,0,465.59,0"></path> <path class="st6" d="M171.11,161.09c17.02,0,31.28-13.34,31.28-30.82c0-17.47-14.26-30.81-31.28-30.81s-31.27,13.34-31.27,30.81 C139.84,147.75,154.09,161.09,171.11,161.09 M106.26,326.13c-1.84,7.82-2.76,16.26-2.76,23.15c0,27.14,14.72,45.16,46,45.16 c25.94,0,46.97-15.4,62.11-40.28l-9.25,37.11h51.51l29.44-118.08c7.36-29.9,21.62-45.41,43.24-45.41 c17.02,0,27.6,10.58,27.6,28.06c0,5.06-0.46,10.58-2.3,16.56l-15.18,54.27c-2.3,7.82-3.22,15.64-3.22,23 c0,25.77,15.17,44.61,46.91,44.61c27.14,0,48.75-17.47,60.71-59.33l-20.24-7.81c-10.12,28.04-18.86,33.11-25.76,33.11 c-6.9,0-10.58-4.6-10.58-13.79c0-4.14,0.92-8.73,2.3-14.27l14.72-52.88c3.68-12.42,5.06-23.43,5.06-33.54 c0-39.56-23.92-60.2-52.9-60.2c-27.14,0-54.74,24.48-68.53,50.24l10.12-46.24h-78.65l-11.04,40.73h36.8l-22.66,90.72 c-17.79,39.56-50.48,40.2-54.58,39.28c-6.74-1.52-11.04-4.08-11.04-12.83c0-5.05,0.92-12.3,3.22-21.05l34.5-136.85h-87.39 L93.38,230.3h36.33L106.26,326.13"></path> </g> <g id="photoshop"> <path class="st20" d="M90.67,7.02h330.67c50.13,0,90.67,40.53,90.67,90.67v317.87c0,50.13-40.53,90.67-90.67,90.67H90.67 C40.53,506.22,0,465.68,0,415.55V97.68C0,47.55,40.53,7.02,90.67,7.02z"></path> <g> <path class="st21" d="M115.2,357.1V137.58c0-1.49,0.64-2.35,2.13-2.35c3.63,0,7.04,0,11.95-0.21c5.12-0.21,10.45-0.21,16.21-0.43 s11.95-0.21,18.56-0.43c6.61-0.21,13.01-0.21,19.41-0.21c17.49,0,32,2.13,43.95,6.61c10.67,3.63,20.48,9.6,28.59,17.49 c6.83,6.83,12.16,15.15,15.57,24.32c3.2,8.96,4.91,18.13,4.91,27.73c0,18.35-4.27,33.49-12.8,45.44 c-8.53,11.95-20.48,20.91-34.35,26.03c-14.51,5.33-30.51,7.25-48,7.25c-5.12,0-8.53,0-10.67-0.21c-2.13-0.21-5.12-0.21-9.17-0.21 v68.48c0.21,1.49-0.85,2.77-2.35,2.99h-41.39C116.05,359.87,115.2,359.02,115.2,357.1L115.2,357.1z M161.71,176.4v71.68 c2.99,0.21,5.76,0.43,8.32,0.43h11.31c8.32,0,16.64-1.28,24.53-3.84c6.83-1.92,12.8-5.97,17.49-11.31 c4.48-5.33,6.61-12.59,6.61-21.97c0.21-6.61-1.49-13.23-4.91-18.99c-3.63-5.55-8.75-9.81-14.93-12.16 c-7.89-3.2-16.43-4.48-25.17-4.27c-5.55,0-10.45,0-14.51,0.21C166.19,175.98,163.2,176.19,161.71,176.4L161.71,176.4z M409.6,235.07c-6.4-3.41-13.23-5.76-20.48-7.25c-7.89-1.71-15.79-2.77-23.89-2.77c-4.27-0.21-8.75,0.43-12.8,1.49 c-2.77,0.64-5.12,2.13-6.61,4.27c-1.07,1.71-1.71,3.84-1.71,5.76c0,1.92,0.85,3.84,2.13,5.55c1.92,2.35,4.48,4.27,7.25,5.76 c4.91,2.56,10.03,4.91,15.15,7.04c11.52,3.84,22.61,9.17,32.85,15.57c7.04,4.48,12.8,10.45,16.85,17.71 c3.41,6.83,5.12,14.29,4.91,21.97c0.21,10.03-2.77,20.05-8.32,28.37c-5.97,8.53-14.29,15.15-23.89,18.99 c-10.45,4.48-23.25,6.83-38.61,6.83c-9.81,0-19.41-0.85-29.01-2.77c-7.47-1.28-14.93-3.63-21.76-6.83 c-1.49-0.85-2.56-2.35-2.35-4.05v-37.12c0-0.64,0.21-1.49,0.85-1.92c0.64-0.43,1.28-0.21,1.92,0.21 c8.32,4.91,17.07,8.32,26.45,10.45c8.11,2.13,16.64,3.2,25.17,3.2c8.11,0,13.87-1.07,17.71-2.99c3.41-1.49,5.76-5.12,5.76-8.96 c0-2.99-1.71-5.76-5.12-8.53c-3.41-2.77-10.45-5.97-20.91-10.03c-10.88-3.84-20.91-8.96-30.29-15.36 c-6.61-4.69-12.16-10.88-16.21-18.13c-3.41-6.83-5.12-14.29-4.91-21.76c0-9.17,2.56-17.92,7.25-25.81 c5.33-8.53,13.23-15.36,22.4-19.63c10.03-5.12,22.61-7.47,37.76-7.47c8.75,0,17.71,0.64,26.45,1.92 c6.4,0.85,12.59,2.56,18.35,4.91c0.85,0.21,1.71,1.07,2.13,1.92c0.21,0.85,0.43,1.71,0.43,2.56v34.77c0,0.85-0.43,1.71-1.07,2.13 C411.52,235.5,410.45,235.5,409.6,235.07L409.6,235.07z"></path> </g> </g> <g id="xd"> <path class="st22" d="M90.67,6.4h330.67C471.47,6.4,512,46.93,512,97.07v317.87c0,50.13-40.53,90.67-90.67,90.67H90.67 C40.53,505.6,0,465.07,0,414.93V97.07C0,46.93,40.53,6.4,90.67,6.4z"></path> <g> <path class="st23" d="M269.23,137.6l-64,105.6l68.27,112c0.43,0.85,0.64,1.71,0.43,2.56c-0.21,0.85-1.07,0.21-2.35,0.43h-48.85 c-3.41,0-5.76-0.21-7.25-2.35c-4.48-8.96-9.17-17.71-13.65-26.67c-4.48-8.75-9.39-17.71-14.51-26.88s-10.24-18.35-15.36-27.73 h-0.43c-4.48,9.17-9.39,18.35-14.29,27.52c-4.91,9.17-9.81,18.35-14.51,27.31c-4.91,8.96-9.81,18.13-14.72,26.88 c-0.85,2.13-2.56,2.35-4.91,2.35H76.16c-0.85,0-1.49,0.43-1.49-0.64c-0.21-0.85,0-1.71,0.43-2.35l66.35-108.8L76.8,137.39 c-0.64-0.85-0.85-1.71-0.43-2.13c0.43-0.64,1.28-0.85,2.13-0.85h48.43c1.07,0,2.13,0.21,2.99,0.43c0.85,0.43,1.49,1.07,2.13,1.92 c4.05,9.17,8.75,18.35,13.65,27.52c5.12,9.17,10.03,18.13,15.36,27.09c5.12,8.96,9.81,17.92,14.29,27.09h0.43 c4.48-9.39,9.17-18.56,13.87-27.52s9.6-17.92,14.51-26.88c4.91-8.96,9.6-18.13,14.29-26.88c0.21-0.85,0.64-1.71,1.28-2.13 c0.85-0.43,1.71-0.64,2.77-0.43h45.01c1.07-0.21,2.13,0.43,2.35,1.49C270.08,136.32,269.65,137.17,269.23,137.6L269.23,137.6z M367.79,362.67c-15.79,0.21-31.57-2.99-45.87-9.6c-13.44-6.19-24.53-16.43-32.21-29.01c-7.89-13.01-11.73-29.23-11.73-48.64 c-0.21-15.79,3.84-31.36,11.73-45.01c8.11-13.87,19.84-25.39,33.92-33.07c14.93-8.32,32.85-12.37,53.97-12.37 c1.07,0,2.56,0,4.48,0.21s4.05,0.21,6.61,0.43v-67.41c0-1.49,0.64-2.35,2.13-2.35h43.31c1.07-0.21,1.92,0.64,2.13,1.49v203.52 c0,3.84,0.21,8.11,0.43,12.8c0.43,4.48,0.64,8.75,0.85,12.37c0,1.49-0.64,2.77-2.13,3.41c-11.09,4.69-22.83,8.11-34.77,10.24 C389.76,361.6,378.88,362.67,367.79,362.67L367.79,362.67z M388.69,320v-93.87c-1.92-0.43-3.84-0.85-5.76-1.07 c-2.35-0.21-4.69-0.43-7.04-0.43c-8.32,0-16.64,1.71-24.11,5.55c-7.25,3.63-13.44,8.96-18.13,15.79s-7.04,16-7.04,27.09 c-0.21,7.47,1.07,14.93,3.63,21.97c2.13,5.76,5.33,10.88,9.6,15.15c4.05,3.84,8.96,6.83,14.51,8.53 c5.76,1.92,11.73,2.77,17.71,2.77c3.2,0,6.19-0.21,8.96-0.43C383.79,321.28,386.13,320.85,388.69,320L388.69,320z"></path> </g> </g> <g id="figma"> <path class="st24" d="M84.94,0.19h341.27V512H84.94V0.19z"></path> <path class="st25" d="M255.48,256.1c0-47.04,38.13-85.37,85.37-85.37c47.04,0,85.37,38.13,85.37,85.37 c0,47.04-38.13,85.37-85.37,85.37C293.81,341.46,255.48,303.13,255.48,256.1L255.48,256.1z"></path> <path class="st26" d="M84.94,426.63c0-47.04,38.13-85.37,85.37-85.37h85.37v85.37c0,47.04-38.13,85.37-85.37,85.37 S84.94,473.87,84.94,426.63L84.94,426.63z"></path> <path class="st27" d="M255.48,0.19v170.54h85.37c47.04,0,85.37-38.13,85.37-85.37C426.21,38.33,388.08,0,340.84,0h-85.37V0.19z"></path> <path class="st28" d="M84.94,85.56c0,47.04,38.13,85.37,85.37,85.37h85.37V0.19h-85.37C123.07,0.19,84.94,38.33,84.94,85.56z"></path> <path class="st29" d="M84.94,256.1c0,47.04,38.13,85.37,85.37,85.37h85.37V170.73h-85.37C123.07,170.73,84.94,209.06,84.94,256.1z "></path> </g> <g id="sketch_00000141418527814129543400000015193042472758043070_"> <g transform="translate(.17 30.901)"> <path id="a_00000060747903231934960030000007167063581957555624_" class="st30" d="M104.49,189l151.7,296.92L1.21,189H104.49z"></path> </g> <g transform="matrix(-1 0 0 1 94.64 30.901)"> <path id="b_00000139285708304899393280000005762729069967877264_" class="st30" d="M407.93,189l-151.7,296.92L511.21,189H407.93z "></path> </g> <g transform="translate(19.3 30.901)"> <path id="c_00000097490927140605863330000015463547470339401350_" class="st31" d="M104.49,189h303.4l-151.7,296.92L104.49,189z"></path> </g> <g transform="translate(19.3 .42)"> <path id="d_00000051348932030511934840000005047439691557328523_" class="st32" d="M256.19,24.45L112.47,39.64L104.49,189 L256.19,24.45z"></path> </g> <g transform="matrix(-1 0 0 1 75.5 .42)"> <path id="e_00000158725482766545831320000018385337995885029823_" class="st32" d="M256.19,24.45L399.9,39.64L407.88,189 L256.19,24.45z"></path> </g> <g transform="matrix(-1 0 0 1 94.64 3.234)"> <path id="f_00000105407137523744697220000002544245380125051837_" class="st31" d="M511.21,189L399.95,39.64L407.93,189H511.21z"></path> </g> <g transform="translate(.17 3.234)"> <path id="g_00000088097646259412219430000008360362251052570292_" class="st31" d="M1.21,189L112.48,39.64L104.49,189H1.21z"></path> </g> <g transform="translate(19.3 .42)"> <path id="h_00000009587639153010644530000017037189472060472203_" class="st33" d="M256.19,24.45L104.49,189h303.4L256.19,24.45z "></path> </g> </g> </g> <g id="Layer_2"> <g id="docker"> <path class="st34" d="M507.01,221.64c-1.42-1.19-14.25-10.92-41.79-10.92c-7.12,0-14.49,0.71-21.61,1.9 c-5.22-36.33-35.38-53.9-36.57-54.85l-7.36-4.27l-4.75,6.89c-5.94,9.26-10.45,19.71-13.06,30.4c-4.99,20.66-1.9,40.13,8.55,56.75 c-12.59,7.12-33.01,8.79-37.28,9.02H15.94c-8.79,0-15.91,7.12-15.91,15.91c-0.47,29.45,4.51,58.89,14.72,86.67 c11.64,30.4,28.97,52.95,51.29,66.73c25.17,15.44,66.25,24.22,112.56,24.22c20.9,0,41.79-1.9,62.45-5.7 c28.73-5.22,56.28-15.2,81.69-29.68c20.9-12.11,39.66-27.55,55.57-45.59c26.83-30.16,42.74-63.88,54.38-93.8h4.75 c29.21,0,47.26-11.64,57.23-21.61c6.65-6.17,11.64-13.77,15.2-22.32l2.14-6.17L507.01,221.64z"></path> <path class="st34" d="M47.29,246.81H92.4c2.14,0,4.04-1.66,4.04-4.04v-40.37c0-2.14-1.66-4.04-4.04-4.04H47.29 c-2.14,0-4.04,1.66-4.04,4.04v40.37C43.49,245.15,45.15,246.81,47.29,246.81z M109.5,246.81h45.12c2.14,0,4.04-1.66,4.04-4.04 v-40.37c0-2.14-1.66-4.04-4.04-4.04H109.5c-2.14,0-4.04,1.66-4.04,4.04v40.37C105.7,245.15,107.36,246.81,109.5,246.81 M172.9,246.81h45.12c2.14,0,4.04-1.66,4.04-4.04v-40.37c0-2.14-1.66-4.04-4.04-4.04H172.9c-2.14,0-4.04,1.66-4.04,4.04v40.37 C168.87,245.15,170.53,246.81,172.9,246.81z M235.36,246.81h45.12c2.14,0,4.04-1.66,4.04-4.04v-40.37c0-2.14-1.66-4.04-4.04-4.04 h-45.12c-2.14,0-4.04,1.66-4.04,4.04v40.37C231.32,245.15,233.22,246.81,235.36,246.81z M109.5,189.11h45.12 c2.14,0,4.04-1.9,4.04-4.04V144.7c0-2.14-1.66-4.04-4.04-4.04H109.5c-2.14,0-4.04,1.66-4.04,4.04v40.37 C105.7,187.21,107.36,189.11,109.5,189.11 M172.9,189.11h45.12c2.14,0,4.04-1.9,4.04-4.04V144.7c0-2.14-1.66-4.04-4.04-4.04H172.9 c-2.14,0-4.04,1.66-4.04,4.04v40.37C168.87,187.21,170.53,189.11,172.9,189.11 M235.36,189.11h45.12c2.14,0,4.04-1.9,4.04-4.04 V144.7c0-2.14-1.9-4.04-4.04-4.04h-45.12c-2.14,0-4.04,1.66-4.04,4.04v40.37C231.32,187.21,233.22,189.11,235.36,189.11 M235.36,131.17h45.12c2.14,0,4.04-1.66,4.04-4.04V86.76c0-2.14-1.9-4.04-4.04-4.04h-45.12c-2.14,0-4.04,1.66-4.04,4.04v40.37 C231.32,129.27,233.22,131.17,235.36,131.17 M298.28,246.81h45.12c2.14,0,4.04-1.66,4.04-4.04v-40.37c0-2.14-1.66-4.04-4.04-4.04 h-45.12c-2.14,0-4.04,1.66-4.04,4.04v40.37C294.48,245.15,296.15,246.81,298.28,246.81"></path> </g> </g> </svg> 