<svg xmlns="http://www.w3.org/2000/svg" width="40" height="8à" fill="none" viewBox="0 0 210 314">
  <path fill="#1ABCFE" fill-rule="evenodd" d="M104.667 157c0-28.902 23.431-52.333 52.333-52.333 28.902 0 52.333 23.431 52.333 52.333 0 28.902-23.431 52.333-52.333 52.333-28.902 0-52.333-23.431-52.333-52.333Z" clip-rule="evenodd"/>
  <path fill="#0ACF83" fill-rule="evenodd" d="M0 261.667c0-28.903 23.43-52.334 52.333-52.334h52.334v52.334c0 28.902-23.431 52.333-52.334 52.333C23.43 314 0 290.569 0 261.667Z" clip-rule="evenodd"/>
  <path fill="#FF7262" fill-rule="evenodd" d="M104.667 0v104.667H157c28.902 0 52.333-23.431 52.333-52.334C209.333 23.43 185.902 0 157 0h-52.333Z" clip-rule="evenodd"/>
  <path fill="#F24E1E" fill-rule="evenodd" d="M0 52.333c0 28.903 23.43 52.334 52.333 52.334h52.334V0H52.333C23.43 0 0 23.43 0 52.333Z" clip-rule="evenodd"/>
  <path fill="#A259FF" fill-rule="evenodd" d="M0 157c0 28.902 23.43 52.333 52.333 52.333h52.334V104.667H52.333C23.43 104.667 0 128.098 0 157Z" clip-rule="evenodd"/>
</svg>
