<svg xmlns="http://www.w3.org/2000/svg" width="279" height="313" fill="none" viewBox="0 0 279 313">
  <path fill="#fff" d="M32.223 37h206v230h-206z"/>
  <path fill="#fff" d="M32.223 37h206v230h-206z"/>
  <path fill="#3AD" d="m278.223 0-26.087 282.567L139.11 313 26.082 282.567 0 0h278.223Zm-52.567 57.456H50.826l4.217 34.122h88.682l-4.717 1.963-80.896 33.693 2.682 33.354 78.214.254 41.92.133-2.683 44.473-39.238 11.047v-.035l-.321.089-37.893-9.566-2.3-27.606H63.096l4.6 53.294 71.313 21.088v-.038l.128.038 70.93-20.704 9.201-105.821h-80.457l.198-.086 83.199-35.57 3.448-34.122Z"/>
  <path fill="#3AD" d="m278.223 0-26.087 282.567L139.11 313 26.082 282.567 0 0h278.223Zm-52.567 57.456H50.826l4.217 34.122h88.682l-4.717 1.963-80.896 33.693 2.682 33.354 78.214.254 41.92.133-2.683 44.473-39.238 11.047v-.035l-.321.089-37.893-9.566-2.3-27.606H63.096l4.6 53.294 71.313 21.088v-.038l.128.038 70.93-20.704 9.201-105.821h-80.457l.198-.086 83.199-35.57 3.448-34.122Z"/>
</svg>
