<svg xmlns="http://www.w3.org/2000/svg" width="40" height="80" fill="none" viewBox="0 0 147 315">
  <path fill="#00684A" d="M100.845 35.109C87.632 19.423 76.255 3.493 73.93.184a.59.59 0 0 0-.857 0c-2.324 3.309-13.702 19.24-26.915 34.925C-67.255 179.833 64.02 277.502 64.02 277.502l1.101.735C66.1 293.309 68.547 315 68.547 315h9.787s2.447-21.568 3.426-36.763l1.1-.858c.123.123 131.398-97.546 17.985-242.27ZM73.44 275.418s-5.872-5.024-7.463-7.598v-.244l7.096-157.593c0-.49.735-.49.735 0l7.095 157.593v.244c-1.59 2.574-7.463 7.598-7.463 7.598Z"/>
</svg>
