<svg xmlns="http://www.w3.org/2000/svg" width="40" height="80" fill="none" viewBox="0 0 323 314">
  <path fill="#001E36" d="M57.363 0h207.992c31.534 0 57.03 25.496 57.03 57.03v199.94c0 31.534-25.496 57.03-57.03 57.03H57.363C25.83 314 .333 288.504.333 256.97V57.03C.333 25.496 25.83 0 57.363 0Z"/>
  <path fill="#31A8FF" d="M72.795 220.203V82.123c0-.94.402-1.476 1.342-1.476 2.28 0 4.428 0 7.514-.134 3.22-.134 6.575-.134 10.198-.269 3.623-.134 7.515-.134 11.675-.268 4.16-.134 8.185-.134 12.211-.134 11.003 0 20.128 1.342 27.643 4.16a47.92 47.92 0 0 1 17.981 11.003 42.728 42.728 0 0 1 9.796 15.298c2.012 5.635 3.086 11.406 3.086 17.444 0 11.54-2.684 21.068-8.051 28.582-5.368 7.515-12.882 13.151-21.605 16.371-9.124 3.355-19.189 4.562-30.192 4.562-3.22 0-5.368 0-6.709-.134-1.342-.134-3.221-.134-5.77-.134v43.074c.134.94-.537 1.745-1.477 1.879H74.405c-1.073 0-1.61-.537-1.61-1.744Zm29.253-113.658v45.088c1.878.134 3.623.268 5.233.268h7.112c5.233 0 10.467-.805 15.432-2.415 4.294-1.208 8.051-3.758 11.003-7.112 2.818-3.355 4.16-7.918 4.16-13.822a22.09 22.09 0 0 0-3.086-11.943c-2.282-3.488-5.502-6.172-9.394-7.648-4.965-2.013-10.332-2.818-15.834-2.684-3.489 0-6.575 0-9.125.134-2.683-.134-4.562 0-5.501.134Zm155.926 36.902c-4.026-2.147-8.32-3.623-12.882-4.562-4.965-1.074-9.93-1.745-15.029-1.745-2.684-.134-5.502.269-8.051.94-1.745.402-3.221 1.341-4.16 2.683-.671 1.074-1.074 2.416-1.074 3.623 0 1.208.537 2.416 1.342 3.489 1.208 1.476 2.818 2.684 4.562 3.623 3.087 1.611 6.307 3.087 9.528 4.429 7.246 2.415 14.224 5.77 20.665 9.795 4.428 2.818 8.051 6.576 10.601 11.138 2.147 4.294 3.22 8.991 3.086 13.821.134 6.307-1.744 12.614-5.233 17.847-3.758 5.368-8.991 9.528-15.029 11.943-6.576 2.818-14.627 4.294-24.288 4.294-6.173 0-12.212-.537-18.25-1.744a54.19 54.19 0 0 1-13.687-4.294c-.94-.537-1.61-1.476-1.476-2.55v-23.349c0-.402.134-.939.536-1.207.403-.269.806-.135 1.208.134 5.234 3.086 10.735 5.233 16.639 6.575 5.1 1.342 10.467 2.013 15.835 2.013 5.099 0 8.722-.671 11.137-1.879 2.147-.939 3.623-3.22 3.623-5.636 0-1.878-1.073-3.623-3.22-5.367-2.147-1.745-6.575-3.757-13.151-6.307a82.076 82.076 0 0 1-19.054-9.662c-4.16-2.952-7.649-6.843-10.199-11.406-2.147-4.294-3.22-8.99-3.086-13.687 0-5.77 1.61-11.272 4.562-16.237 3.355-5.367 8.32-9.661 14.09-12.345 6.307-3.22 14.224-4.696 23.752-4.696 5.501 0 11.137.402 16.639 1.207a47.236 47.236 0 0 1 11.54 3.087c.537.134 1.074.671 1.342 1.207.134.537.268 1.074.268 1.611v21.872c0 .537-.268 1.074-.671 1.342-1.207.268-1.878.268-2.415 0Z"/>
</svg>
