<svg xmlns="http://www.w3.org/2000/svg" width="40" height="80" fill="none" viewBox="0 0 260 314">
  <path fill="#E0234E" fill-rule="evenodd" d="M259.855 33c.096-.497.145-.997.145-1.5C260 14.103 201.797 0 130 0S0 14.103 0 31.5c0 .503.049 1.003.145 1.5H0v247h.013c1.008 18.823 58.82 34 129.987 34 71.168 0 128.979-15.177 129.987-34H260V33h-.145Z" clip-rule="evenodd"/>
  <path fill="#fff" d="M53.06 230.912c-4.028 0-7.885-.304-11.571-.912-3.648-.57-6.821-1.254-9.519-2.052-2.698-.836-4.598-1.596-5.7-2.28l2.622-16.53c1.406.798 3.306 1.615 5.7 2.451 2.394.836 5.035 1.558 7.923 2.166a46.1 46.1 0 0 0 8.835.855c3.99 0 6.878-.57 8.664-1.71 1.824-1.14 2.736-2.964 2.736-5.472 0-1.824-.551-3.363-1.653-4.617-1.102-1.292-2.926-2.603-5.472-3.933-2.508-1.33-5.871-3.002-10.089-5.016-3.572-1.71-6.859-3.724-9.861-6.042-3.002-2.356-5.415-5.168-7.239-8.436-1.824-3.306-2.736-7.22-2.736-11.742 0-3.876.722-7.258 2.166-10.146a20.199 20.199 0 0 1 6.213-7.296c2.698-1.938 5.89-3.382 9.576-4.332 3.686-.988 7.771-1.482 12.255-1.482 6.384 0 11.59.589 15.618 1.767 4.028 1.178 6.802 2.223 8.322 3.135l-3.306 15.846c-1.71-1.33-4.351-2.546-7.923-3.648a35.247 35.247 0 0 0-10.887-1.71c-2.66 0-4.845.304-6.555.912-1.71.57-2.983 1.387-3.819 2.451-.836 1.064-1.254 2.299-1.254 3.705 0 1.71.494 3.23 1.482 4.56 1.026 1.292 2.603 2.584 4.731 3.876 2.166 1.254 4.959 2.66 8.379 4.218 3.648 1.634 6.897 3.306 9.747 5.016 2.888 1.71 5.339 3.572 7.353 5.586 2.014 2.014 3.534 4.313 4.56 6.897 1.064 2.546 1.596 5.491 1.596 8.835 0 5.054-1.197 9.462-3.591 13.224-2.356 3.762-5.833 6.688-10.431 8.778-4.598 2.052-10.222 3.078-16.872 3.078Zm103.128 18.81c-6.27 0-11.324-.646-15.162-1.938-3.838-1.292-6.859-3.42-9.063-6.384-2.204-2.926-4.009-6.878-5.415-11.856l10.146-2.622h5.814c.646 2.242 1.558 3.895 2.736 4.959 1.178 1.102 2.831 1.824 4.959 2.166 2.128.342 4.921.513 8.379.513 1.596 0 3.173-.171 4.731-.513 1.558-.342 2.907-.703 4.047-1.083v14.25c-1.026.494-2.47 1.026-4.332 1.596-1.862.608-4.142.912-6.84.912Zm-23.94-18.81c-8.36.152-15.504-1.539-21.432-5.073-5.89-3.572-10.374-8.645-13.452-15.219-3.04-6.612-4.484-14.402-4.332-23.37.19-10.032 2.033-18.145 5.53-24.339 3.533-6.232 8.34-10.811 14.42-13.737 6.08-2.964 13.034-4.56 20.862-4.788 8.018-.228 14.896 1.406 20.634 4.902 5.738 3.458 10.108 8.455 13.11 14.991 3.04 6.536 4.484 14.269 4.332 23.199-.19 10.032-1.976 18.221-5.358 24.567-3.382 6.346-8.018 11.039-13.908 14.079-5.89 3.04-12.692 4.636-20.406 4.788Zm.342-15.276c5.472 0 9.785-2.204 12.939-6.612 3.154-4.446 4.731-11.818 4.731-22.116 0-5.32-.608-9.994-1.824-14.022-1.216-4.028-3.059-7.163-5.529-9.405-2.47-2.242-5.605-3.363-9.405-3.363-3.458 0-6.612.855-9.462 2.565-2.85 1.71-5.13 4.579-6.84 8.607-1.672 4.028-2.508 9.538-2.508 16.53 0 5.396.665 10.184 1.995 14.364 1.33 4.18 3.306 7.467 5.928 9.861 2.66 2.394 5.985 3.591 9.975 3.591ZM186.649 230v-84.702h20.976V212.9h28.614V230h-49.59Z"/>
</svg>
